<?xml version="1.0" encoding="utf-8"?>
<!-- Generator: Adobe Illustrator 27.1.1, SVG Export Plug-In . SVG Version: 6.00 Build 0)  -->
<svg version="1.1" id="Layer_1" xmlns="http://www.w3.org/2000/svg" xmlns:xlink="http://www.w3.org/1999/xlink" x="0px" y="0px"
	 viewBox="0 0 492.82 596.84" style="enable-background:new 0 0 492.82 596.84;" xml:space="preserve">
<style type="text/css">
	.st0{fill:url(#SVGID_1_);}
	.st1{fill:#D1E8E1;}
	.st2{fill:none;stroke:#FFFFFF;stroke-width:1.1999;stroke-linejoin:round;stroke-miterlimit:22.9256;}
	.st3{fill-rule:evenodd;clip-rule:evenodd;fill:#FF304E;}
	.st4{opacity:0.5;fill-rule:evenodd;clip-rule:evenodd;fill:#FFFFFF;enable-background:new    ;}
	.st5{opacity:0.2;fill-rule:evenodd;clip-rule:evenodd;enable-background:new    ;}
	.st6{fill-rule:evenodd;clip-rule:evenodd;fill:#FFFFFF;}
	.st7{fill-rule:evenodd;clip-rule:evenodd;fill:#FAA43A;}
	.st8{opacity:0.12;fill-rule:evenodd;clip-rule:evenodd;enable-background:new    ;}
	.st9{fill:#00914B;}
	.st10{fill:#68A662;}
	.st11{fill:#00783E;}
	.st12{fill:#FC5954;}
	.st13{fill:#CD2846;}
	.st14{fill:#32285F;}
	.st15{clip-path:url(#SVGID_00000036228353255076381900000003033841213519288195_);}
	.st16{fill:#8BC9B4;}
	.st17{opacity:0.3;}
</style>
<g id="BACKGROUND">
</g>
<g id="OBJECTS">
	
		<linearGradient id="SVGID_1_" gradientUnits="userSpaceOnUse" x1="249.2062" y1="474.6487" x2="244.644" y2="-31.7294" gradientTransform="matrix(1 0 0 -1 0 462)">
		<stop  offset="0" style="stop-color:#00382E"/>
		<stop  offset="1" style="stop-color:#006747"/>
	</linearGradient>
	<rect y="-0.97" class="st0" width="492.82" height="597.81"/>
	<path class="st1" d="M492.82,596.84H0v-123.4h275.86c0,0,57.13-17.59,109.25,0c52.12,17.59,107.71,0,107.71,0V596.84z"/>
	<path class="st1" d="M454.31,462.72"/>
	<g>
		<g>
			<line class="st2" x1="70.23" y1="28.26" x2="70.23" y2="8.18"/>
			<g>
				<g>
					<path class="st3" d="M84.6,54.91c5.46-0.24,10.07,4.13,10.31,9.76c0.24,5.64-4,10.4-9.45,10.65
						c-5.46,0.24-10.07-4.13-10.31-9.76C74.91,59.92,79.14,55.16,84.6,54.91z"/>
					<path class="st4" d="M78.09,70.86c-0.81-1.04-1.37-2.22-1.68-3.46l1.28-0.34c0.26,1.05,0.74,2.06,1.43,2.95L78.09,70.86
						L78.09,70.86z M76.3,66.91l1.29-0.26c-0.08-0.4-0.13-0.82-0.15-1.23c-0.03-0.76,0.05-1.52,0.24-2.26l-1.28-0.34
						C76.07,64.15,76.03,65.55,76.3,66.91L76.3,66.91z M78.13,63.27l1.48,0.4c-0.21,0.85-0.24,1.73-0.06,2.58l-1.49,0.3
						c-0.07-0.39-0.12-0.77-0.14-1.16C77.88,64.68,77.96,63.96,78.13,63.27L78.13,63.27z M79.61,66.56l-1.48,0.39
						c0.25,0.99,0.69,1.93,1.34,2.76l1.18-0.98C80.15,68.07,79.8,67.33,79.61,66.56z"/>
					<path class="st5" d="M83.14,55.09c2.99-0.6,6.21,0.24,8.61,2.54c4,3.84,4.24,10.3,0.52,14.43c-2.23,2.49-5.38,3.56-8.4,3.2
						C93.2,70.93,91.89,58.95,83.14,55.09z"/>
				</g>
				<polygon class="st6" points="81.84,53.75 87.26,53.51 87.33,55.15 81.91,55.39 				"/>
				<path class="st2" d="M84.57,54.03c-2.17-2.65-2.35-6.04-0.26-6.13C86.41,47.8,86.51,51.19,84.57,54.03z"/>
			</g>
			<line class="st2" x1="84.31" y1="47.9" x2="84.31" y2="17.95"/>
			<g>
				<g>
					<path class="st7" d="M70.42,32.96c3.66-0.16,6.75,2.77,6.91,6.54c0.15,3.78-2.68,6.97-6.33,7.14
						c-3.66,0.16-6.75-2.77-6.91-6.54C63.93,36.32,66.76,33.13,70.42,32.96z"/>
					<path class="st4" d="M66.05,43.64c-0.54-0.7-0.91-1.49-1.12-2.32l0.86-0.23c0.17,0.71,0.49,1.38,0.96,1.97L66.05,43.64
						L66.05,43.64z M64.86,41l0.87-0.18c-0.05-0.27-0.08-0.56-0.09-0.83c-0.02-0.51,0.04-1.02,0.15-1.52l-0.86-0.23
						C64.7,39.15,64.68,40.09,64.86,41L64.86,41z M66.09,38.56l0.98,0.26c-0.14,0.56-0.15,1.16-0.05,1.73l-1,0.21
						c-0.05-0.25-0.08-0.52-0.09-0.78C65.92,39.5,65.97,39.02,66.09,38.56L66.09,38.56z M67.07,40.76l-0.98,0.26
						c0.16,0.66,0.46,1.3,0.89,1.85l0.79-0.66C67.44,41.78,67.2,41.28,67.07,40.76z"/>
					<path class="st8" d="M69.44,33.08c2.01-0.4,4.16,0.16,5.77,1.7c2.68,2.57,2.84,6.9,0.36,9.67c-1.49,1.67-3.6,2.39-5.63,2.15
						C76.18,43.69,75.3,35.67,69.44,33.08z"/>
				</g>
				<polygon class="st6" points="68.57,32.17 72.2,32.01 72.25,33.11 68.61,33.27 				"/>
				<path class="st2" d="M70.39,32.36c-1.46-1.77-1.58-4.04-0.17-4.11C71.63,28.19,71.7,30.47,70.39,32.36z"/>
			</g>
		</g>
		<g>
			<path class="st9" d="M74.64-7.84l34.87,34.13c-2.9-4.14-5.55-12.8-2.02-16.64l0.01-0.01c0.46-0.51,0.28-1.35-0.36-1.53
				c-1.6-0.45-3.11-1.31-4.39-2.56c-1.82-1.79-2.89-4.1-3.18-6.48c-0.07-0.57-0.61-0.94-1.15-0.78c-3.47,1.05-7.37,0.24-10.19-2.52
				c-1.25-1.22-2.14-2.7-2.67-4.27c-0.14-0.4-0.53-0.64-0.94-0.59L74.64-7.84z"/>
			<path class="st10" d="M74.64-7.84l34.87,34.13c-4.16-2.77-12.67-5.04-16.2-1.2l-0.01,0.01c-0.46,0.51-1.29,0.36-1.49-0.3
				c-0.53-1.62-1.43-3.14-2.72-4.4c-1.82-1.79-4.11-2.76-6.44-2.94c-0.57-0.05-0.95-0.58-0.81-1.15c0.84-3.63-0.16-7.62-2.98-10.38
				c-1.25-1.22-2.73-2.06-4.27-2.52c-0.39-0.12-0.65-0.51-0.62-0.93L74.64-7.84z"/>
			<g>
				<polygon class="st11" points="93.34,11.15 101.25,10.47 101.32,11.31 93.4,11.99 				"/>
			</g>
			<g>
				<polygon class="st11" points="85.03,3.02 92.94,2.34 93.01,3.17 85.1,3.85 				"/>
			</g>
		</g>
		<g>
			<g>
				<path class="st9" d="M18.36,10.93L4.77,61.62c2.31-4.86,8.83-11.73,14.07-10.22c0.01,0,0.01,0,0.02,0.01
					c0.68,0.2,1.36-0.4,1.2-1.12c-0.38-1.77-0.36-3.65,0.14-5.53c0.71-2.66,2.27-4.83,4.29-6.3c0.49-0.36,0.55-1.06,0.14-1.5
					c-2.69-2.82-3.88-7.01-2.78-11.1c0.49-1.82,1.39-3.41,2.54-4.71c0.29-0.33,0.32-0.83,0.07-1.2L18.36,10.93z"/>
				<path class="st10" d="M18.36,10.93L4.77,61.62c0.45-5.39-1.73-14.75-6.97-16.25c-0.01,0-0.01,0-0.02-0.01
					c-0.69-0.2-0.97-1.06-0.47-1.59c1.21-1.32,2.13-2.94,2.63-4.81c0.71-2.66,0.46-5.35-0.54-7.68c-0.24-0.56,0.05-1.21,0.64-1.36
					c3.71-1,6.82-3.94,7.92-8.04c0.49-1.82,0.51-3.66,0.16-5.39c-0.09-0.44,0.15-0.89,0.54-1.06L18.36,10.93z"/>
				<g>
					<polygon class="st11" points="9.57,39.02 10.59,38.35 15.13,45.66 14.12,46.33 					"/>
				</g>
				<g>
					<polygon class="st11" points="12.81,26.95 13.83,26.27 18.38,33.59 17.36,34.26 					"/>
				</g>
			</g>
			<g>
				<path class="st9" d="M24.15,15.77L65.09,76.6c-3.03-6.96-4.35-20.44,1.93-24.96c0.01-0.01,0.02-0.01,0.02-0.02
					c0.83-0.59,0.8-1.87-0.09-2.35c-2.2-1.17-4.17-2.88-5.67-5.12c-2.14-3.18-3.02-6.88-2.75-10.47c0.06-0.87-0.62-1.57-1.46-1.5
					c-5.39,0.46-10.85-1.97-14.16-6.88c-1.47-2.18-2.33-4.61-2.65-7.09c-0.08-0.63-0.58-1.1-1.19-1.16L24.15,15.77z"/>
				<path class="st10" d="M24.15,15.77L65.09,76.6c-5.26-5.36-17.04-11.34-23.32-6.83c-0.01,0.01-0.02,0.01-0.02,0.02
					c-0.83,0.59-1.98,0.12-2.1-0.9c-0.29-2.53-1.17-5.04-2.67-7.28c-2.14-3.18-5.2-5.33-8.55-6.31c-0.81-0.24-1.21-1.14-0.86-1.93
					c2.3-5.06,2-11.19-1.31-16.1c-1.47-2.18-3.37-3.87-5.51-5.04c-0.54-0.29-0.79-0.95-0.63-1.56L24.15,15.77z"/>
				<g>
					<polygon class="st11" points="45.74,50.64 45.88,49.41 57.65,50.9 57.51,52.13 					"/>
				</g>
				<g>
					<polygon class="st11" points="35.98,36.15 36.13,34.91 47.89,36.4 47.75,37.63 					"/>
				</g>
			</g>
			<g>
				<path class="st9" d="M17.33,8.6l61.01,1.49c-6.14-1.35-15.78-7.17-15.62-13.9c0-0.01,0-0.02,0-0.03
					c0.02-0.89-0.84-1.52-1.6-1.11c-1.88,0.98-4.01,1.51-6.25,1.45c-3.19-0.08-6.1-1.31-8.35-3.3c-0.55-0.48-1.36-0.35-1.72,0.28
					c-2.4,4.05-6.75,6.71-11.68,6.59c-2.2-0.06-4.24-0.66-6.04-1.68c-0.46-0.25-1.03-0.14-1.37,0.26L17.33,8.6z"/>
				<path class="st10" d="M17.33,8.6l61.01,1.49c-6.2,1.05-16.09,6.39-16.24,13.12c0,0.01,0,0.02,0,0.03
					c-0.02,0.89-0.91,1.47-1.66,1.04c-1.83-1.06-3.93-1.7-6.18-1.75c-3.19-0.08-6.15,1.02-8.49,2.89c-0.57,0.45-1.37,0.28-1.71-0.37
					c-2.21-4.16-6.44-7.03-11.37-7.16c-2.2-0.06-4.27,0.45-6.12,1.38c-0.46,0.24-1.03,0.08-1.36-0.34L17.33,8.6z"/>
				<g>
					<polygon class="st11" points="50.53,9.99 57.43,2.39 58.31,3.24 51.41,10.84 					"/>
				</g>
				<g>
					<polygon class="st11" points="36,9.64 42.9,2.04 43.78,2.89 36.88,10.49 					"/>
				</g>
			</g>
			<g>
				<path class="st12" d="M24.08,15.85c-4.09,2.15-9.1,0.46-11.17-3.76c-2.08-4.23-0.45-9.4,3.64-11.54
					c4.09-2.15,9.1-0.46,11.17,3.76S28.17,13.69,24.08,15.85z"/>
				<path class="st13" d="M18.93,13.65c-2.08-4.23-0.45-9.4,3.64-11.54c0.85-0.45,1.74-0.72,2.64-0.85
					c-2.44-1.85-5.78-2.24-8.67-0.72c-4.09,2.15-5.72,7.32-3.64,11.54c1.65,3.34,5.12,5.08,8.53,4.6
					C20.42,15.92,19.55,14.9,18.93,13.65z"/>
				<path class="st14" d="M26.32,7.37c-0.61,0.32-1.56-0.34-2.12-1.49c-0.57-1.14-0.52-2.33,0.09-2.65
					c0.61-0.32,1.56,0.34,2.12,1.49C26.97,5.87,26.93,7.05,26.32,7.37z"/>
			</g>
			<g>
				<path class="st12" d="M11.09,31.21c-5.28-1.78-8.17-7.65-6.44-13.11s7.4-8.45,12.69-6.67s8.18,7.65,6.45,13.11
					C22.06,30.01,16.38,32.99,11.09,31.21z"/>
				<path class="st13" d="M8.5,24.78c1.72-5.46,7.4-8.45,12.69-6.67c1.1,0.37,2.09,0.92,2.96,1.61c-0.57-3.75-3.09-7.03-6.82-8.29
					c-5.29-1.78-10.97,1.21-12.69,6.67C3.28,22.43,4.82,27,8.14,29.6C7.89,28.04,7.99,26.39,8.5,24.78z"/>
				<path class="st14" d="M20.03,25.94c-0.79-0.26-1.06-1.68-0.59-3.15s1.49-2.46,2.27-2.18c0.79,0.26,1.06,1.68,0.59,3.15
					C21.84,25.23,20.83,26.21,20.03,25.94z"/>
			</g>
			<g>
				<path class="st12" d="M9.08,14.1c-4.09,2.15-9.1,0.46-11.17-3.76C-4.18,6.1-2.55,0.93,1.55-1.21s9.1-0.46,11.17,3.76
					C14.8,6.78,13.17,11.94,9.08,14.1z"/>
				<path class="st13" d="M3.93,11.9C1.85,7.68,3.48,2.51,7.57,0.36c0.86-0.45,1.74-0.72,2.64-0.85C7.77-2.33,4.44-2.73,1.55-1.21
					C-2.55,0.93-4.18,6.1-2.1,10.33c1.65,3.34,5.12,5.09,8.53,4.6C5.41,14.17,4.55,13.16,3.93,11.9z"/>
				<path class="st14" d="M11.32,5.62c-0.61,0.32-1.56-0.34-2.12-1.49C8.63,3,8.68,1.81,9.29,1.49c0.61-0.32,1.56,0.34,2.12,1.49
					C11.97,4.12,11.93,5.3,11.32,5.62z"/>
			</g>
		</g>
	</g>
	<g>
		<g>
			<line class="st2" x1="423.07" y1="9.29" x2="423.07" y2="29.37"/>
			<g>
				<g>
					<path class="st3" d="M418.15,66.67c-0.24,5.63-4.85,10.01-10.31,9.76c-5.45-0.24-9.69-5.01-9.45-10.65
						c0.24-5.63,4.85-10.01,10.31-9.76C414.16,56.27,418.39,61.03,418.15,66.67z"/>
					<path class="st4" d="M415.22,71.97l-1.03-0.85c0.69-0.89,1.17-1.89,1.43-2.95l1.28,0.34
						C416.58,69.75,416.03,70.94,415.22,71.97L415.22,71.97z M417,68.02c0.26-1.36,0.23-2.76-0.11-4.1l-1.28,0.34
						c0.19,0.74,0.26,1.5,0.24,2.26c-0.02,0.41-0.06,0.83-0.15,1.23L417,68.02L417,68.02z M415.17,64.38
						c0.17,0.69,0.25,1.4,0.22,2.12c-0.02,0.39-0.06,0.77-0.14,1.16l-1.49-0.3c0.17-0.85,0.15-1.73-0.06-2.58L415.17,64.38
						L415.17,64.38z M412.65,69.83l1.18,0.98c0.65-0.83,1.09-1.77,1.34-2.76l-1.48-0.39C413.5,68.44,413.15,69.18,412.65,69.83z"/>
					<path class="st5" d="M409.43,76.38c-3.03,0.36-6.17-0.72-8.4-3.2c-3.72-4.13-3.48-10.59,0.52-14.43
						c2.41-2.31,5.62-3.14,8.61-2.54C401.42,60.06,400.1,72.04,409.43,76.38z"/>
				</g>
				<polygon class="st6" points="411.4,56.5 405.97,56.26 406.04,54.62 411.47,54.86 				"/>
				<path class="st2" d="M408.99,49.01c2.1,0.09,1.91,3.48-0.26,6.13C406.79,52.3,406.89,48.91,408.99,49.01z"/>
			</g>
			<line class="st2" x1="408.99" y1="19.06" x2="408.99" y2="49.01"/>
			<g>
				<g>
					<path class="st7" d="M429.22,41.2c-0.16,3.78-3.25,6.7-6.91,6.54c-3.66-0.17-6.49-3.36-6.33-7.14c0.16-3.78,3.25-6.7,6.91-6.54
						C426.54,34.23,429.37,37.43,429.22,41.2z"/>
					<path class="st4" d="M427.25,44.75l-0.69-0.57c0.46-0.58,0.78-1.26,0.96-1.97l0.86,0.23
						C428.16,43.26,427.79,44.05,427.25,44.75L427.25,44.75z M428.44,42.11c0.18-0.9,0.15-1.85-0.07-2.75l-0.86,0.23
						c0.12,0.5,0.17,1.01,0.15,1.52c-0.01,0.27-0.04,0.56-0.09,0.83L428.44,42.11L428.44,42.11z M427.21,39.67
						c0.12,0.46,0.17,0.94,0.15,1.42c-0.01,0.26-0.05,0.53-0.09,0.78l-1-0.21c0.11-0.57,0.09-1.17-0.05-1.73L427.21,39.67
						L427.21,39.67z M425.53,43.33l0.79,0.66c0.43-0.56,0.73-1.2,0.89-1.85l-0.98-0.26C426.1,42.39,425.86,42.89,425.53,43.33z"/>
					<path class="st8" d="M423.37,47.71c-2.03,0.24-4.14-0.48-5.63-2.15c-2.49-2.77-2.32-7.1,0.36-9.67
						c1.61-1.54,3.76-2.11,5.77-1.7C418.01,36.78,417.12,44.8,423.37,47.71z"/>
				</g>
				<polygon class="st6" points="424.69,34.38 421.06,34.22 421.1,33.12 424.73,33.28 				"/>
				<path class="st2" d="M423.08,29.37c1.4,0.07,1.29,2.33-0.17,4.11C421.61,31.58,421.67,29.3,423.08,29.37z"/>
			</g>
		</g>
		<g>
			<path class="st9" d="M408.69-7.98c-0.41-0.05-0.8,0.2-0.94,0.59c-0.53,1.57-1.42,3.05-2.67,4.27c-2.82,2.76-6.72,3.58-10.19,2.52
				c-0.54-0.16-1.08,0.21-1.15,0.78c-0.29,2.38-1.36,4.69-3.18,6.48c-1.29,1.25-2.8,2.11-4.39,2.56c-0.65,0.18-0.83,1.02-0.36,1.53
				l0.01,0.01c3.53,3.84,0.88,12.49-2.02,16.64l34.87-34.13L408.69-7.98z"/>
			<path class="st10" d="M419.33,3.6c0.03,0.42-0.23,0.81-0.62,0.93c-1.55,0.46-3.03,1.3-4.27,2.52c-2.82,2.76-3.82,6.74-2.98,10.38
				c0.14,0.56-0.25,1.1-0.81,1.15c-2.32,0.18-4.61,1.15-6.44,2.94c-1.29,1.26-2.19,2.78-2.72,4.4c-0.21,0.66-1.03,0.81-1.49,0.3
				l-0.01-0.01c-3.53-3.84-12.04-1.57-16.2,1.2l34.87-34.13L419.33,3.6z"/>
			<g>
				<polygon class="st11" points="399.9,13.1 391.99,12.42 392.05,11.58 399.96,12.26 				"/>
			</g>
			<g>
				<polygon class="st11" points="408.2,4.96 400.29,4.28 400.36,3.45 408.27,4.13 				"/>
			</g>
		</g>
		<g>
			<g>
				<path class="st9" d="M468.83,21.06c-0.25,0.37-0.22,0.87,0.07,1.2c1.16,1.3,2.05,2.89,2.54,4.71c1.1,4.09-0.09,8.28-2.78,11.1
					c-0.41,0.43-0.36,1.14,0.14,1.5c2.02,1.47,3.58,3.64,4.29,6.3c0.5,1.87,0.52,3.76,0.14,5.53c-0.15,0.72,0.52,1.32,1.2,1.12
					c0.01-0.01,0.01-0.01,0.02-0.01c5.24-1.51,11.77,5.37,14.07,10.22l-13.59-50.68L468.83,21.06z"/>
				<path class="st10" d="M484.64,16.53c0.39,0.18,0.63,0.62,0.54,1.06c-0.35,1.72-0.33,3.57,0.16,5.39c1.1,4.1,4.21,7.04,7.92,8.04
					c0.58,0.15,0.88,0.79,0.64,1.36c-0.99,2.33-1.25,5.03-0.54,7.68c0.5,1.87,1.42,3.49,2.63,4.81c0.49,0.53,0.22,1.39-0.47,1.59
					c-0.01,0.01-0.01,0.01-0.02,0.01c-5.24,1.5-7.42,10.86-6.97,16.25l-13.59-50.68L484.64,16.53z"/>
				<g>
					<polygon class="st11" points="479.18,47.44 478.17,46.77 482.72,39.46 483.73,40.13 					"/>
				</g>
				<g>
					<polygon class="st11" points="475.94,35.37 474.92,34.69 479.47,27.38 480.49,28.06 					"/>
				</g>
			</g>
			<g>
				<path class="st9" d="M454.24,18.16c-0.61,0.06-1.11,0.53-1.19,1.16c-0.32,2.48-1.18,4.91-2.65,7.09
					c-3.31,4.91-8.77,7.34-14.16,6.88c-0.84-0.08-1.52,0.63-1.46,1.5c0.26,3.59-0.61,7.29-2.75,10.47c-1.5,2.24-3.47,3.95-5.67,5.12
					c-0.89,0.48-0.92,1.76-0.09,2.35c0,0.01,0.01,0.01,0.02,0.02c6.28,4.52,4.96,18,1.93,24.96l40.94-60.83L454.24,18.16z"/>
				<path class="st10" d="M473.17,31.79c0.16,0.61-0.09,1.27-0.63,1.56c-2.13,1.17-4.04,2.85-5.51,5.04
					c-3.31,4.91-3.61,11.04-1.31,16.1c0.36,0.79-0.05,1.69-0.86,1.93c-3.35,0.98-6.41,3.13-8.55,6.31c-1.5,2.24-2.38,4.75-2.67,7.28
					c-0.12,1.03-1.27,1.5-2.1,0.9c0-0.01-0.01-0.01-0.02-0.02c-6.28-4.51-18.06,1.47-23.32,6.83l40.94-60.83L473.17,31.79z"/>
				<g>
					<polygon class="st11" points="435.8,53.24 435.65,52.01 447.42,50.52 447.57,51.75 					"/>
				</g>
				<g>
					<polygon class="st11" points="445.56,38.74 445.41,37.51 457.17,36.02 457.32,37.26 					"/>
				</g>
			</g>
			<g>
				<path class="st9" d="M467.61-0.23c-0.34-0.4-0.91-0.52-1.37-0.26c-1.8,1.02-3.85,1.62-6.04,1.68
					c-4.92,0.12-9.28-2.54-11.68-6.59c-0.36-0.63-1.18-0.76-1.72-0.28c-2.25,2-5.16,3.23-8.35,3.3c-2.24,0.06-4.38-0.47-6.25-1.45
					c-0.77-0.4-1.62,0.23-1.6,1.11c0,0.01,0,0.02,0,0.03c0.15,6.72-9.48,12.55-15.62,13.9l61.01-1.49L467.61-0.23z"/>
				<path class="st10" d="M468.09,20.05c-0.33,0.42-0.89,0.57-1.36,0.34c-1.85-0.93-3.92-1.44-6.12-1.38
					c-4.92,0.12-9.16,2.99-11.37,7.16c-0.35,0.65-1.15,0.82-1.71,0.37c-2.33-1.87-5.3-2.97-8.49-2.89
					c-2.25,0.05-4.35,0.69-6.18,1.75c-0.75,0.43-1.64-0.15-1.66-1.04c0-0.01,0-0.02,0-0.03c-0.15-6.73-10.04-12.08-16.24-13.12
					l61.01-1.49L468.09,20.05z"/>
				<g>
					<polygon class="st11" points="441.89,11.94 434.99,4.35 435.87,3.5 442.77,11.09 					"/>
				</g>
				<g>
					<polygon class="st11" points="456.42,11.6 449.52,4 450.4,3.15 457.3,10.75 					"/>
				</g>
			</g>
			<g>
				<path class="st12" d="M465.59,5.41c2.08-4.22,7.08-5.9,11.17-3.76c4.08,2.15,5.72,7.32,3.64,11.54
					c-2.08,4.22-7.08,5.9-11.17,3.76C465.13,14.8,463.51,9.63,465.59,5.41z"/>
				<path class="st13" d="M471.87,17.8c3.41,0.48,6.88-1.26,8.53-4.6c2.09-4.23,0.46-9.4-3.64-11.54c-2.89-1.52-6.23-1.12-8.67,0.72
					c0.9,0.13,1.8,0.4,2.64,0.85c4.08,2.15,5.72,7.32,3.64,11.54C473.75,16.01,472.89,17.03,471.87,17.8z"/>
				<path class="st14" d="M466.89,5.84c0.57-1.15,1.51-1.81,2.12-1.49c0.61,0.32,0.66,1.51,0.09,2.65
					c-0.57,1.15-1.51,1.81-2.12,1.49C466.37,8.16,466.33,6.98,466.89,5.84z"/>
			</g>
			<g>
				<path class="st12" d="M469.51,25.66c-1.72-5.46,1.17-11.33,6.45-13.11s10.97,1.21,12.69,6.67c1.72,5.46-1.17,11.33-6.44,13.11
					C476.92,34.1,471.25,31.12,469.51,25.66z"/>
				<path class="st13" d="M485.16,30.71c3.32-2.61,4.86-7.17,3.49-11.5c-1.72-5.46-7.4-8.45-12.69-6.67
					c-3.73,1.25-6.25,4.54-6.82,8.29c0.88-0.69,1.86-1.24,2.96-1.61c5.29-1.78,10.97,1.21,12.69,6.67
					C485.31,27.5,485.41,29.15,485.16,30.71z"/>
				<path class="st14" d="M471,24.87c-0.46-1.48-0.2-2.89,0.59-3.15c0.78-0.27,1.8,0.71,2.27,2.18c0.46,1.48,0.2,2.89-0.59,3.15
					S471.46,26.34,471,24.87z"/>
			</g>
			<g>
				<path class="st12" d="M480.58,3.65c2.08-4.22,7.08-5.9,11.17-3.76c4.09,2.15,5.72,7.32,3.65,11.55
					c-2.08,4.22-7.08,5.9-11.17,3.76C480.13,13.05,478.5,7.89,480.58,3.65z"/>
				<path class="st13" d="M486.87,16.04c3.41,0.49,6.88-1.26,8.53-4.6c2.08-4.23,0.45-9.4-3.65-11.54
					c-2.89-1.52-6.23-1.12-8.67,0.72c0.9,0.13,1.79,0.4,2.64,0.85c4.09,2.15,5.72,7.32,3.65,11.54
					C488.76,14.26,487.89,15.28,486.87,16.04z"/>
				<path class="st14" d="M481.89,4.09c0.57-1.15,1.51-1.81,2.12-1.49c0.61,0.32,0.66,1.51,0.09,2.65
					c-0.57,1.15-1.51,1.81-2.12,1.49C481.37,6.41,481.34,5.23,481.89,4.09z"/>
			</g>
		</g>
	</g>
	<g>
		<g>
			<defs>
				<rect id="SVGID_00000063632559026305151930000008075357790791812787_" x="0.63" y="189.59" width="492.19" height="297.03"/>
			</defs>
			<clipPath id="SVGID_00000068649577034224852210000016445109373908929925_">
				<use xlink:href="#SVGID_00000063632559026305151930000008075357790791812787_"  style="overflow:visible;"/>
			</clipPath>
			<g style="clip-path:url(#SVGID_00000068649577034224852210000016445109373908929925_);">
				<path class="st16" d="M102.96,522.41c58.09-80.4,126.8-92.42,192.94-90.57c66.13,1.85,133.1,15.61,197.77-19.58
					c-1.04,56.87,4.87,108.22,3.83,165.06c-122.15-4.89-247.2,2.02-369.35-2.84c-6.47-0.25-13.44-0.94-18.57-10.94
					C104.43,553.54,97.28,530.25,102.96,522.41z"/>
				<path class="st1" d="M526.86,520.04c-35.66,35.77-75.86,25-113.25,3.48c-37.39-21.52-74.22-53.34-112.51-58.39
					c-45.05-5.91-89.84,25.63-134.92,21.49c-56.59-5.19-113.5-66.24-168.34-30.33c3.18,16.99-2.54,40.71-2.18,59.5v51.73
					c175.01,0,352.04-0.75,527-9.97c5.24-0.28,11.04-1.13,14.77-10.5C541.17,537.72,531.74,515.16,526.86,520.04z"/>
			</g>
		</g>
	</g>
</g>
<g class="st17">
	<path class="st6" d="M355.82,460.53c0.93,0,1.77,0.38,2.37,0.98c0.61,0.61,0.98,1.45,0.98,2.37c0,0.93-0.38,1.77-0.98,2.37
		c-0.61,0.61-1.45,0.98-2.37,0.98c-0.93,0-1.77-0.38-2.37-0.98c-0.61-0.61-0.98-1.45-0.98-2.37c0-0.93,0.38-1.77,0.98-2.37
		C354.05,460.91,354.89,460.53,355.82,460.53L355.82,460.53z M357.2,462.51c-0.35-0.35-0.84-0.57-1.38-0.57s-1.03,0.22-1.38,0.57
		c-0.35,0.35-0.57,0.84-0.57,1.38c0,0.54,0.22,1.03,0.57,1.38c0.35,0.35,0.84,0.57,1.38,0.57s1.03-0.22,1.38-0.57
		c0.35-0.35,0.57-0.84,0.57-1.38C357.77,463.35,357.55,462.86,357.2,462.51z"/>
	<path class="st6" d="M355.11,441.68c0-0.39,0.31-0.7,0.7-0.7s0.7,0.32,0.7,0.7v19.56c0,0.39-0.31,0.7-0.7,0.7s-0.7-0.31-0.7-0.7
		V441.68z"/>
	<path class="st6" d="M352.71,444.67c-0.24-0.3-0.19-0.74,0.11-0.98c0.3-0.24,0.74-0.19,0.98,0.12l2.56,3.25
		c0.24,0.3,0.19,0.74-0.12,0.98c-0.3,0.24-0.74,0.19-0.98-0.12L352.71,444.67z"/>
	<path class="st6" d="M357.83,443.8c0.24-0.3,0.68-0.35,0.98-0.12c0.3,0.24,0.35,0.68,0.11,0.98l-2.56,3.25
		c-0.24,0.3-0.68,0.35-0.98,0.12c-0.3-0.24-0.35-0.68-0.12-0.98L357.83,443.8z"/>
	<path class="st6" d="M352.71,447.83c-0.24-0.3-0.19-0.74,0.11-0.98c0.3-0.24,0.74-0.19,0.98,0.12l2.56,3.25
		c0.24,0.3,0.19,0.74-0.12,0.98c-0.3,0.24-0.74,0.19-0.98-0.11L352.71,447.83z"/>
	<path class="st6" d="M357.83,446.96c0.24-0.3,0.68-0.35,0.98-0.12c0.3,0.24,0.35,0.68,0.11,0.98l-2.56,3.25
		c-0.24,0.3-0.68,0.35-0.98,0.11c-0.3-0.24-0.35-0.68-0.12-0.98L357.83,446.96z"/>
	<path class="st6" d="M374.7,452.18c0.33-0.19,0.76-0.08,0.96,0.26c0.19,0.33,0.08,0.76-0.26,0.96l-16.94,9.78
		c-0.34,0.19-0.76,0.08-0.96-0.26c-0.19-0.34-0.08-0.76,0.26-0.96L374.7,452.18z"/>
	<path class="st6" d="M370.9,451.59c0.14-0.36,0.55-0.54,0.91-0.39c0.36,0.14,0.54,0.55,0.39,0.91l-1.53,3.84
		c-0.14,0.36-0.55,0.54-0.91,0.39c-0.36-0.14-0.54-0.55-0.39-0.91L370.9,451.59z"/>
	<path class="st6" d="M374.22,455.59c0.38,0.05,0.65,0.41,0.6,0.79c-0.06,0.38-0.41,0.65-0.79,0.6l-4.09-0.6
		c-0.38-0.05-0.65-0.41-0.6-0.79c0.05-0.38,0.41-0.65,0.79-0.6L374.22,455.59z"/>
	<path class="st6" d="M368.17,453.17c0.14-0.36,0.55-0.54,0.91-0.39c0.36,0.14,0.54,0.55,0.39,0.91l-1.53,3.84
		c-0.14,0.36-0.55,0.54-0.91,0.39c-0.36-0.14-0.54-0.55-0.39-0.91L368.17,453.17z"/>
	<path class="st6" d="M371.48,457.17c0.38,0.05,0.65,0.41,0.6,0.79c-0.06,0.38-0.41,0.65-0.79,0.6l-4.09-0.6
		c-0.38-0.05-0.65-0.41-0.6-0.79c0.05-0.38,0.41-0.65,0.79-0.6L371.48,457.17z"/>
	<path class="st6" d="M375.41,474.39c0.34,0.19,0.45,0.62,0.26,0.96c-0.19,0.34-0.62,0.45-0.96,0.26l-16.94-9.78
		c-0.33-0.19-0.45-0.62-0.26-0.96c0.19-0.34,0.62-0.45,0.96-0.26L375.41,474.39z"/>
	<path class="st6" d="M374.02,470.8c0.38-0.05,0.74,0.21,0.79,0.6c0.05,0.38-0.21,0.74-0.6,0.79l-4.09,0.6
		c-0.38,0.06-0.74-0.21-0.79-0.6c-0.06-0.38,0.21-0.74,0.6-0.79L374.02,470.8z"/>
	<path class="st6" d="M372.21,475.68c0.14,0.36-0.03,0.77-0.39,0.91c-0.36,0.14-0.77-0.03-0.91-0.39l-1.53-3.84
		c-0.14-0.36,0.03-0.77,0.39-0.91c0.36-0.14,0.77,0.03,0.91,0.39L372.21,475.68z"/>
	<path class="st6" d="M371.28,469.22c0.38-0.05,0.74,0.21,0.79,0.6c0.05,0.38-0.21,0.74-0.6,0.79l-4.09,0.6
		c-0.38,0.05-0.74-0.21-0.79-0.6c-0.06-0.38,0.21-0.74,0.6-0.79L371.28,469.22z"/>
	<path class="st6" d="M369.47,474.1c0.14,0.36-0.03,0.77-0.39,0.91c-0.36,0.14-0.77-0.03-0.91-0.39l-1.53-3.84
		c-0.14-0.36,0.03-0.77,0.39-0.91c0.36-0.14,0.77,0.03,0.91,0.39L369.47,474.1z"/>
	<path class="st6" d="M356.52,486.11c0,0.39-0.31,0.7-0.7,0.7c-0.39,0-0.7-0.31-0.7-0.7v-19.56c0-0.39,0.31-0.7,0.7-0.7
		c0.39,0,0.7,0.31,0.7,0.7V486.11z"/>
	<path class="st6" d="M358.93,483.11c0.24,0.3,0.19,0.74-0.11,0.98c-0.3,0.24-0.74,0.19-0.98-0.12l-2.56-3.25
		c-0.24-0.3-0.19-0.74,0.12-0.98c0.3-0.24,0.74-0.19,0.98,0.12L358.93,483.11z"/>
	<path class="st6" d="M353.8,483.98c-0.24,0.3-0.68,0.36-0.98,0.12c-0.3-0.24-0.35-0.68-0.11-0.98l2.56-3.25
		c0.24-0.3,0.68-0.36,0.98-0.12c0.3,0.24,0.35,0.68,0.12,0.98L353.8,483.98z"/>
	<path class="st6" d="M358.93,479.95c0.24,0.3,0.19,0.74-0.11,0.98c-0.3,0.24-0.74,0.19-0.98-0.12l-2.56-3.25
		c-0.24-0.3-0.19-0.74,0.12-0.98c0.3-0.24,0.74-0.19,0.98,0.12L358.93,479.95z"/>
	<path class="st6" d="M353.8,480.82c-0.24,0.3-0.68,0.36-0.98,0.12c-0.3-0.24-0.35-0.68-0.11-0.98l2.56-3.25
		c0.24-0.3,0.68-0.36,0.98-0.12c0.3,0.24,0.35,0.68,0.12,0.98L353.8,480.82z"/>
	<path class="st6" d="M336.93,475.61c-0.33,0.19-0.76,0.08-0.96-0.26c-0.19-0.34-0.08-0.76,0.26-0.96l16.94-9.78
		c0.34-0.19,0.76-0.08,0.96,0.26c0.19,0.34,0.08,0.76-0.26,0.96L336.93,475.61z"/>
	<path class="st6" d="M340.73,476.19c-0.14,0.36-0.55,0.54-0.91,0.39c-0.36-0.14-0.54-0.55-0.39-0.91l1.53-3.84
		c0.14-0.36,0.55-0.54,0.91-0.39c0.36,0.14,0.53,0.55,0.39,0.91L340.73,476.19z"/>
	<path class="st6" d="M337.42,472.19c-0.38-0.06-0.65-0.41-0.6-0.79c0.05-0.38,0.41-0.65,0.79-0.6l4.09,0.6
		c0.38,0.06,0.65,0.41,0.6,0.79c-0.05,0.38-0.41,0.65-0.79,0.6L337.42,472.19z"/>
	<path class="st6" d="M343.47,474.61c-0.14,0.36-0.55,0.54-0.91,0.39c-0.36-0.14-0.54-0.55-0.39-0.91l1.53-3.84
		c0.14-0.36,0.55-0.54,0.91-0.39c0.36,0.14,0.54,0.55,0.39,0.91L343.47,474.61z"/>
	<path class="st6" d="M340.15,470.61c-0.38-0.05-0.65-0.41-0.6-0.79c0.05-0.38,0.41-0.65,0.79-0.6l4.09,0.6
		c0.38,0.06,0.65,0.41,0.6,0.79c-0.05,0.38-0.41,0.65-0.79,0.6L340.15,470.61z"/>
	<path class="st6" d="M336.23,453.39c-0.34-0.19-0.45-0.62-0.26-0.96c0.19-0.34,0.62-0.45,0.96-0.26l16.94,9.78
		c0.34,0.19,0.45,0.62,0.26,0.96c-0.19,0.34-0.62,0.45-0.96,0.26L336.23,453.39z"/>
	<path class="st6" d="M337.61,456.98c-0.38,0.05-0.74-0.21-0.79-0.6c-0.05-0.38,0.21-0.74,0.6-0.79l4.09-0.6
		c0.38-0.05,0.74,0.21,0.79,0.6c0.05,0.38-0.21,0.74-0.6,0.79L337.61,456.98z"/>
	<path class="st6" d="M339.43,452.1c-0.14-0.36,0.03-0.77,0.39-0.91c0.36-0.14,0.77,0.03,0.91,0.39l1.53,3.84
		c0.14,0.36-0.03,0.77-0.39,0.91c-0.36,0.14-0.77-0.03-0.91-0.39L339.43,452.1z"/>
	<path class="st6" d="M340.35,458.56c-0.38,0.05-0.74-0.21-0.79-0.6c-0.05-0.38,0.21-0.74,0.6-0.79l4.09-0.6
		c0.38-0.05,0.74,0.21,0.79,0.6c0.05,0.38-0.21,0.74-0.6,0.79L340.35,458.56z"/>
	<path class="st6" d="M342.16,453.68c-0.14-0.36,0.03-0.77,0.39-0.91c0.36-0.14,0.77,0.03,0.91,0.39l1.53,3.84
		c0.14,0.36-0.03,0.77-0.39,0.91c-0.36,0.14-0.77-0.03-0.91-0.39L342.16,453.68z"/>
	<path class="st6" d="M348.37,452.39c-0.19-0.34-0.08-0.76,0.26-0.96c0.34-0.19,0.76-0.08,0.96,0.26l5.51,9.55
		c0.19,0.34,0.08,0.76-0.26,0.96c-0.34,0.19-0.76,0.08-0.96-0.26L348.37,452.39z"/>
	<path class="st6" d="M347.08,454.41c-0.36-0.14-0.54-0.55-0.39-0.91c0.14-0.36,0.55-0.54,0.91-0.39l3.41,1.36
		c0.36,0.14,0.54,0.55,0.39,0.91c-0.14,0.36-0.55,0.53-0.91,0.39L347.08,454.41z"/>
	<path class="st6" d="M350.58,451.38c0.05-0.38,0.41-0.65,0.79-0.6c0.38,0.05,0.65,0.41,0.6,0.79l-0.53,3.63
		c-0.05,0.38-0.41,0.65-0.79,0.6c-0.38-0.05-0.65-0.41-0.6-0.79L350.58,451.38z"/>
	<path class="st6" d="M348.48,456.84c-0.36-0.14-0.54-0.55-0.39-0.91c0.14-0.36,0.55-0.54,0.91-0.39l3.41,1.36
		c0.36,0.14,0.54,0.55,0.39,0.91c-0.14,0.36-0.55,0.54-0.91,0.39L348.48,456.84z"/>
	<path class="st6" d="M351.99,453.81c0.05-0.38,0.41-0.65,0.79-0.6c0.38,0.05,0.65,0.41,0.6,0.79l-0.53,3.63
		c-0.05,0.38-0.41,0.65-0.79,0.6c-0.38-0.05-0.65-0.41-0.6-0.79L351.99,453.81z"/>
	<path class="st6" d="M362.05,451.7c0.19-0.34,0.62-0.45,0.96-0.26c0.33,0.19,0.45,0.62,0.26,0.96l-5.51,9.55
		c-0.19,0.33-0.62,0.45-0.96,0.26c-0.34-0.19-0.45-0.62-0.26-0.96L362.05,451.7z"/>
	<path class="st6" d="M359.66,451.58c-0.05-0.38,0.21-0.74,0.6-0.79c0.38-0.05,0.74,0.21,0.79,0.6l0.53,3.63
		c0.05,0.38-0.21,0.74-0.6,0.79c-0.38,0.05-0.74-0.21-0.79-0.6L359.66,451.58z"/>
	<path class="st6" d="M364.03,453.11c0.36-0.14,0.77,0.03,0.91,0.39c0.14,0.36-0.03,0.77-0.39,0.91l-3.41,1.36
		c-0.36,0.14-0.77-0.03-0.91-0.39c-0.14-0.36,0.03-0.77,0.39-0.91L364.03,453.11z"/>
	<path class="st6" d="M358.26,454.01c-0.06-0.38,0.21-0.74,0.6-0.79c0.38-0.05,0.74,0.21,0.79,0.6l0.53,3.63
		c0.05,0.38-0.21,0.74-0.6,0.79c-0.38,0.06-0.74-0.21-0.79-0.6L358.26,454.01z"/>
	<path class="st6" d="M362.63,455.54c0.36-0.14,0.77,0.03,0.91,0.39c0.14,0.36-0.03,0.77-0.39,0.91l-3.41,1.36
		c-0.36,0.14-0.77-0.03-0.91-0.39c-0.14-0.36,0.03-0.77,0.39-0.91L362.63,455.54z"/>
	<path class="st6" d="M369.49,463.19c0.39,0,0.7,0.31,0.7,0.7c0,0.39-0.31,0.7-0.7,0.7h-11.02c-0.39,0-0.7-0.31-0.7-0.7
		c0-0.39,0.31-0.7,0.7-0.7H369.49z"/>
	<path class="st6" d="M368.4,461.07c0.3-0.24,0.74-0.19,0.98,0.12c0.24,0.3,0.19,0.74-0.12,0.98l-2.88,2.27
		c-0.3,0.24-0.74,0.19-0.98-0.12c-0.24-0.3-0.19-0.74,0.12-0.98L368.4,461.07z"/>
	<path class="st6" d="M369.26,465.62c0.3,0.24,0.36,0.68,0.12,0.98c-0.24,0.3-0.68,0.35-0.98,0.12l-2.88-2.27
		c-0.3-0.24-0.36-0.68-0.12-0.98c0.24-0.3,0.68-0.36,0.98-0.12L369.26,465.62z"/>
	<path class="st6" d="M365.59,461.07c0.3-0.24,0.74-0.19,0.98,0.12c0.24,0.3,0.19,0.74-0.12,0.98l-2.88,2.27
		c-0.3,0.24-0.74,0.19-0.98-0.12c-0.24-0.3-0.19-0.74,0.12-0.98L365.59,461.07z"/>
	<path class="st6" d="M366.46,465.62c0.3,0.24,0.35,0.68,0.12,0.98c-0.24,0.3-0.68,0.35-0.98,0.12l-2.88-2.27
		c-0.3-0.24-0.35-0.68-0.12-0.98c0.24-0.3,0.68-0.36,0.98-0.12L366.46,465.62z"/>
	<path class="st6" d="M363.26,475.39c0.19,0.33,0.08,0.76-0.26,0.96c-0.34,0.19-0.76,0.08-0.96-0.26l-5.51-9.55
		c-0.19-0.34-0.08-0.76,0.26-0.96c0.34-0.19,0.76-0.08,0.96,0.26L363.26,475.39z"/>
	<path class="st6" d="M364.55,473.37c0.36,0.14,0.54,0.55,0.39,0.91c-0.14,0.36-0.55,0.54-0.91,0.39l-3.41-1.36
		c-0.36-0.14-0.54-0.55-0.39-0.91c0.14-0.36,0.55-0.54,0.91-0.39L364.55,473.37z"/>
	<path class="st6" d="M361.05,476.4c-0.05,0.38-0.41,0.65-0.79,0.6c-0.38-0.05-0.65-0.41-0.6-0.79l0.53-3.63
		c0.05-0.38,0.41-0.65,0.79-0.6c0.38,0.05,0.65,0.41,0.6,0.79L361.05,476.4z"/>
	<path class="st6" d="M363.15,470.94c0.36,0.14,0.54,0.55,0.39,0.91c-0.14,0.36-0.55,0.54-0.91,0.39l-3.41-1.36
		c-0.36-0.14-0.54-0.55-0.39-0.91c0.14-0.36,0.55-0.54,0.91-0.39L363.15,470.94z"/>
	<path class="st6" d="M359.65,473.97c-0.05,0.38-0.41,0.65-0.79,0.6c-0.38-0.06-0.65-0.41-0.6-0.79l0.53-3.63
		c0.05-0.38,0.41-0.65,0.79-0.6c0.38,0.05,0.65,0.41,0.6,0.79L359.65,473.97z"/>
	<path class="st6" d="M349.58,476.09c-0.19,0.33-0.62,0.45-0.96,0.26c-0.33-0.19-0.45-0.62-0.26-0.96l5.51-9.55
		c0.19-0.34,0.62-0.45,0.96-0.26c0.33,0.19,0.45,0.62,0.26,0.96L349.58,476.09z"/>
	<path class="st6" d="M351.97,476.2c0.05,0.38-0.21,0.74-0.6,0.79c-0.38,0.05-0.74-0.21-0.79-0.6l-0.53-3.63
		c-0.05-0.38,0.21-0.74,0.6-0.79c0.38-0.05,0.74,0.21,0.79,0.6L351.97,476.2z"/>
	<path class="st6" d="M347.6,474.68c-0.36,0.14-0.77-0.03-0.91-0.39c-0.14-0.36,0.03-0.77,0.39-0.91l3.41-1.36
		c0.36-0.14,0.77,0.03,0.91,0.39c0.14,0.36-0.03,0.77-0.39,0.91L347.6,474.68z"/>
	<path class="st6" d="M353.38,473.77c0.06,0.38-0.21,0.74-0.6,0.79c-0.38,0.05-0.74-0.21-0.79-0.6l-0.53-3.63
		c-0.05-0.38,0.21-0.74,0.6-0.79c0.38-0.05,0.74,0.21,0.79,0.6L353.38,473.77z"/>
	<path class="st6" d="M349,472.25c-0.36,0.14-0.77-0.03-0.91-0.39c-0.14-0.36,0.03-0.77,0.39-0.91l3.41-1.36
		c0.36-0.14,0.77,0.03,0.91,0.39c0.14,0.36-0.03,0.77-0.39,0.91L349,472.25z"/>
	<path class="st6" d="M342.14,464.59c-0.39,0-0.7-0.31-0.7-0.7c0-0.39,0.31-0.7,0.7-0.7h11.02c0.39,0,0.7,0.31,0.7,0.7
		c0,0.39-0.31,0.7-0.7,0.7H342.14z"/>
	<path class="st6" d="M343.24,466.71c-0.3,0.24-0.74,0.19-0.98-0.12c-0.24-0.3-0.19-0.74,0.12-0.98l2.88-2.27
		c0.3-0.24,0.74-0.19,0.98,0.12c0.24,0.3,0.19,0.74-0.12,0.98L343.24,466.71z"/>
	<path class="st6" d="M342.37,462.17c-0.3-0.24-0.36-0.68-0.12-0.98c0.24-0.3,0.68-0.36,0.98-0.12l2.88,2.27
		c0.3,0.24,0.36,0.68,0.12,0.98c-0.24,0.3-0.68,0.36-0.98,0.12L342.37,462.17z"/>
	<path class="st6" d="M346.04,466.71c-0.3,0.24-0.74,0.19-0.98-0.12c-0.24-0.3-0.19-0.74,0.11-0.98l2.88-2.27
		c0.3-0.24,0.74-0.19,0.98,0.12c0.24,0.3,0.19,0.74-0.12,0.98L346.04,466.71z"/>
	<path class="st6" d="M345.17,462.17c-0.3-0.24-0.35-0.68-0.11-0.98c0.24-0.3,0.68-0.36,0.98-0.12l2.88,2.27
		c0.3,0.24,0.35,0.68,0.12,0.98c-0.24,0.3-0.68,0.36-0.98,0.12L345.17,462.17z"/>
</g>
<g class="st17">
	<path class="st6" d="M59.19,236.63c0.45,0,0.86,0.18,1.15,0.48c0.29,0.29,0.48,0.7,0.48,1.15c0,0.45-0.18,0.86-0.48,1.15
		c-0.29,0.29-0.7,0.48-1.15,0.48c-0.45,0-0.86-0.18-1.15-0.48c-0.29-0.29-0.48-0.7-0.48-1.15c0-0.45,0.18-0.86,0.48-1.15
		C58.33,236.81,58.74,236.63,59.19,236.63L59.19,236.63z M59.86,237.59c-0.17-0.17-0.41-0.28-0.67-0.28c-0.26,0-0.5,0.11-0.67,0.28
		c-0.17,0.17-0.28,0.41-0.28,0.67c0,0.26,0.11,0.5,0.28,0.67c0.17,0.17,0.41,0.28,0.67,0.28c0.26,0,0.5-0.11,0.67-0.28
		c0.17-0.17,0.28-0.41,0.28-0.67C60.14,238,60.03,237.76,59.86,237.59z"/>
	<path class="st6" d="M58.85,227.49c0-0.19,0.15-0.34,0.34-0.34c0.19,0,0.34,0.15,0.34,0.34v9.49c0,0.19-0.15,0.34-0.34,0.34
		c-0.19,0-0.34-0.15-0.34-0.34V227.49z"/>
	<path class="st6" d="M57.68,228.94c-0.12-0.15-0.09-0.36,0.06-0.48c0.15-0.12,0.36-0.09,0.48,0.06l1.24,1.57
		c0.12,0.15,0.09,0.36-0.06,0.48c-0.15,0.12-0.36,0.09-0.48-0.06L57.68,228.94z"/>
	<path class="st6" d="M60.17,228.52c0.12-0.15,0.33-0.17,0.48-0.06c0.15,0.12,0.17,0.33,0.06,0.48l-1.24,1.57
		c-0.12,0.15-0.33,0.17-0.48,0.06c-0.15-0.12-0.17-0.33-0.06-0.48L60.17,228.52z"/>
	<path class="st6" d="M57.68,230.47c-0.12-0.15-0.09-0.36,0.06-0.48c0.15-0.12,0.36-0.09,0.48,0.06l1.24,1.57
		c0.12,0.15,0.09,0.36-0.06,0.48c-0.15,0.12-0.36,0.09-0.48-0.06L57.68,230.47z"/>
	<path class="st6" d="M60.17,230.05c0.12-0.15,0.33-0.17,0.48-0.06c0.15,0.12,0.17,0.33,0.06,0.48l-1.24,1.57
		c-0.12,0.15-0.33,0.17-0.48,0.06c-0.15-0.12-0.17-0.33-0.06-0.48L60.17,230.05z"/>
	<path class="st6" d="M68.35,232.58c0.16-0.09,0.37-0.04,0.47,0.12c0.09,0.16,0.04,0.37-0.12,0.46l-8.22,4.74
		c-0.16,0.09-0.37,0.04-0.46-0.12c-0.09-0.16-0.04-0.37,0.12-0.46L68.35,232.58z"/>
	<path class="st6" d="M66.51,232.29c0.07-0.17,0.27-0.26,0.44-0.19c0.17,0.07,0.26,0.27,0.19,0.44l-0.74,1.86
		c-0.07,0.17-0.27,0.26-0.44,0.19c-0.17-0.07-0.26-0.27-0.19-0.44L66.51,232.29z"/>
	<path class="st6" d="M68.12,234.23c0.19,0.03,0.32,0.2,0.29,0.39c-0.03,0.19-0.2,0.32-0.38,0.29l-1.98-0.29
		c-0.19-0.03-0.32-0.2-0.29-0.38c0.03-0.19,0.2-0.32,0.38-0.29L68.12,234.23z"/>
	<path class="st6" d="M65.18,233.06c0.07-0.17,0.27-0.26,0.44-0.19c0.17,0.07,0.26,0.27,0.19,0.44l-0.74,1.86
		c-0.07,0.17-0.27,0.26-0.44,0.19c-0.17-0.07-0.26-0.27-0.19-0.44L65.18,233.06z"/>
	<path class="st6" d="M66.79,235c0.19,0.03,0.32,0.2,0.29,0.39c-0.03,0.19-0.2,0.32-0.39,0.29l-1.98-0.29
		c-0.19-0.03-0.32-0.2-0.29-0.39c0.03-0.19,0.2-0.32,0.38-0.29L66.79,235z"/>
	<path class="st6" d="M68.69,243.35c0.16,0.09,0.22,0.3,0.12,0.46c-0.09,0.16-0.3,0.22-0.47,0.12l-8.22-4.74
		c-0.16-0.09-0.22-0.3-0.12-0.46c0.09-0.16,0.3-0.22,0.46-0.12L68.69,243.35z"/>
	<path class="st6" d="M68.02,241.61c0.19-0.03,0.36,0.1,0.38,0.29c0.03,0.19-0.1,0.36-0.29,0.39l-1.98,0.29
		c-0.19,0.03-0.36-0.1-0.38-0.29c-0.03-0.19,0.1-0.36,0.29-0.39L68.02,241.61z"/>
	<path class="st6" d="M67.14,243.98c0.07,0.17-0.02,0.37-0.19,0.44c-0.17,0.07-0.37-0.02-0.44-0.19l-0.74-1.86
		c-0.07-0.17,0.02-0.37,0.19-0.44c0.17-0.07,0.37,0.02,0.44,0.19L67.14,243.98z"/>
	<path class="st6" d="M66.69,240.85c0.19-0.03,0.36,0.1,0.39,0.29c0.03,0.19-0.1,0.36-0.29,0.39l-1.98,0.29
		c-0.19,0.03-0.36-0.1-0.38-0.29c-0.03-0.19,0.1-0.36,0.29-0.39L66.69,240.85z"/>
	<path class="st6" d="M65.81,243.21c0.07,0.17-0.02,0.37-0.19,0.44c-0.17,0.07-0.37-0.02-0.44-0.19l-0.74-1.86
		c-0.07-0.17,0.02-0.37,0.19-0.44c0.17-0.07,0.37,0.02,0.44,0.19L65.81,243.21z"/>
	<path class="st6" d="M59.53,249.03c0,0.19-0.15,0.34-0.34,0.34c-0.19,0-0.34-0.15-0.34-0.34v-9.49c0-0.19,0.15-0.34,0.34-0.34
		c0.19,0,0.34,0.15,0.34,0.34V249.03z"/>
	<path class="st6" d="M60.7,247.58c0.12,0.15,0.09,0.36-0.06,0.48c-0.15,0.12-0.36,0.09-0.48-0.06l-1.24-1.57
		c-0.12-0.15-0.09-0.36,0.06-0.48c0.15-0.12,0.36-0.09,0.48,0.06L60.7,247.58z"/>
	<path class="st6" d="M58.22,248c-0.12,0.15-0.33,0.17-0.48,0.06c-0.15-0.12-0.17-0.33-0.06-0.48l1.24-1.57
		c0.12-0.15,0.33-0.17,0.48-0.06c0.15,0.12,0.17,0.33,0.06,0.48L58.22,248z"/>
	<path class="st6" d="M60.7,246.05c0.12,0.15,0.09,0.36-0.06,0.48c-0.15,0.12-0.36,0.09-0.48-0.06l-1.24-1.57
		c-0.12-0.15-0.09-0.36,0.06-0.48c0.15-0.12,0.36-0.09,0.48,0.06L60.7,246.05z"/>
	<path class="st6" d="M58.22,246.47c-0.12,0.15-0.33,0.17-0.48,0.06c-0.15-0.12-0.17-0.33-0.06-0.48l1.24-1.57
		c0.12-0.15,0.33-0.17,0.48-0.06c0.15,0.12,0.17,0.33,0.06,0.48L58.22,246.47z"/>
	<path class="st6" d="M50.03,243.94c-0.16,0.09-0.37,0.04-0.46-0.12c-0.09-0.16-0.04-0.37,0.12-0.46l8.22-4.74
		c0.16-0.09,0.37-0.04,0.47,0.12c0.09,0.16,0.04,0.37-0.12,0.46L50.03,243.94z"/>
	<path class="st6" d="M51.87,244.23c-0.07,0.17-0.27,0.26-0.44,0.19c-0.17-0.07-0.26-0.27-0.19-0.44l0.74-1.86
		c0.07-0.17,0.27-0.26,0.44-0.19c0.17,0.07,0.26,0.27,0.19,0.44L51.87,244.23z"/>
	<path class="st6" d="M50.27,242.29c-0.19-0.03-0.32-0.2-0.29-0.39c0.03-0.19,0.2-0.32,0.38-0.29l1.98,0.29
		c0.19,0.03,0.32,0.2,0.29,0.39c-0.03,0.19-0.2,0.32-0.38,0.29L50.27,242.29z"/>
	<path class="st6" d="M53.2,243.46c-0.07,0.17-0.27,0.26-0.44,0.19c-0.17-0.07-0.26-0.27-0.19-0.44l0.74-1.86
		c0.07-0.17,0.27-0.26,0.44-0.19c0.17,0.07,0.26,0.27,0.19,0.44L53.2,243.46z"/>
	<path class="st6" d="M51.59,241.52c-0.19-0.03-0.32-0.2-0.29-0.39c0.03-0.19,0.2-0.32,0.38-0.29l1.98,0.29
		c0.19,0.03,0.32,0.2,0.29,0.39c-0.03,0.19-0.2,0.32-0.38,0.29L51.59,241.52z"/>
	<path class="st6" d="M49.69,233.17c-0.16-0.09-0.22-0.3-0.12-0.46c0.09-0.16,0.3-0.22,0.46-0.12l8.22,4.74
		c0.16,0.09,0.22,0.3,0.12,0.46c-0.09,0.16-0.3,0.22-0.47,0.12L49.69,233.17z"/>
	<path class="st6" d="M50.36,234.91c-0.19,0.03-0.36-0.1-0.38-0.29c-0.03-0.19,0.1-0.36,0.29-0.39l1.98-0.29
		c0.19-0.03,0.36,0.1,0.38,0.29c0.03,0.19-0.1,0.36-0.29,0.38L50.36,234.91z"/>
	<path class="st6" d="M51.24,232.54c-0.07-0.17,0.02-0.37,0.19-0.44c0.17-0.07,0.37,0.02,0.44,0.19l0.74,1.86
		c0.07,0.17-0.02,0.37-0.19,0.44c-0.17,0.07-0.37-0.02-0.44-0.19L51.24,232.54z"/>
	<path class="st6" d="M51.69,235.67c-0.19,0.03-0.36-0.1-0.38-0.29c-0.03-0.19,0.1-0.36,0.29-0.39l1.98-0.29
		c0.19-0.03,0.36,0.1,0.38,0.29c0.03,0.19-0.1,0.36-0.29,0.39L51.69,235.67z"/>
	<path class="st6" d="M52.57,233.31c-0.07-0.17,0.02-0.37,0.19-0.44c0.17-0.07,0.37,0.02,0.44,0.19l0.74,1.86
		c0.07,0.17-0.02,0.37-0.19,0.44c-0.17,0.07-0.37-0.02-0.44-0.19L52.57,233.31z"/>
	<path class="st6" d="M55.58,232.68c-0.09-0.16-0.04-0.37,0.13-0.46c0.16-0.09,0.37-0.04,0.46,0.13l2.67,4.63
		c0.09,0.16,0.04,0.37-0.13,0.46c-0.16,0.09-0.37,0.04-0.46-0.12L55.58,232.68z"/>
	<path class="st6" d="M54.96,233.66c-0.17-0.07-0.26-0.27-0.19-0.44c0.07-0.17,0.27-0.26,0.44-0.19l1.65,0.66
		c0.17,0.07,0.26,0.27,0.19,0.44c-0.07,0.17-0.27,0.26-0.44,0.19L54.96,233.66z"/>
	<path class="st6" d="M56.65,232.19c0.03-0.19,0.2-0.32,0.39-0.29c0.19,0.03,0.32,0.2,0.29,0.39l-0.26,1.76
		c-0.03,0.19-0.2,0.32-0.39,0.29c-0.19-0.03-0.32-0.2-0.29-0.38L56.65,232.19z"/>
	<path class="st6" d="M55.64,234.84c-0.17-0.07-0.26-0.27-0.19-0.44c0.07-0.17,0.27-0.26,0.44-0.19l1.65,0.66
		c0.17,0.07,0.26,0.27,0.19,0.44c-0.07,0.17-0.27,0.26-0.44,0.19L55.64,234.84z"/>
	<path class="st6" d="M57.33,233.37c0.03-0.19,0.2-0.32,0.38-0.29c0.19,0.03,0.32,0.2,0.29,0.39l-0.26,1.76
		c-0.03,0.19-0.2,0.32-0.39,0.29c-0.19-0.03-0.32-0.2-0.29-0.39L57.33,233.37z"/>
	<path class="st6" d="M62.21,232.35c0.09-0.16,0.3-0.22,0.46-0.13c0.16,0.09,0.22,0.3,0.13,0.46l-2.67,4.63
		c-0.09,0.16-0.3,0.22-0.46,0.12c-0.16-0.09-0.22-0.3-0.13-0.46L62.21,232.35z"/>
	<path class="st6" d="M61.06,232.29c-0.03-0.19,0.1-0.36,0.29-0.39c0.19-0.03,0.36,0.1,0.39,0.29l0.26,1.76
		c0.03,0.19-0.1,0.36-0.29,0.38c-0.19,0.03-0.36-0.1-0.38-0.29L61.06,232.29z"/>
	<path class="st6" d="M63.18,233.03c0.17-0.07,0.37,0.02,0.44,0.19c0.07,0.17-0.02,0.37-0.19,0.44l-1.65,0.66
		c-0.17,0.07-0.37-0.02-0.44-0.19c-0.07-0.17,0.02-0.37,0.19-0.44L63.18,233.03z"/>
	<path class="st6" d="M60.38,233.47c-0.03-0.19,0.1-0.36,0.29-0.39c0.19-0.03,0.36,0.1,0.39,0.29l0.26,1.76
		c0.03,0.19-0.1,0.36-0.29,0.38c-0.19,0.03-0.36-0.1-0.39-0.29L60.38,233.47z"/>
	<path class="st6" d="M62.5,234.21c0.17-0.07,0.37,0.02,0.44,0.19c0.07,0.17-0.02,0.37-0.19,0.44l-1.65,0.66
		c-0.17,0.07-0.37-0.02-0.44-0.19c-0.07-0.17,0.02-0.37,0.19-0.44L62.5,234.21z"/>
	<path class="st6" d="M65.83,237.92c0.19,0,0.34,0.15,0.34,0.34c0,0.19-0.15,0.34-0.34,0.34h-5.35c-0.19,0-0.34-0.15-0.34-0.34
		c0-0.19,0.15-0.34,0.34-0.34H65.83z"/>
	<path class="st6" d="M65.29,236.89c0.15-0.12,0.36-0.09,0.48,0.06c0.12,0.15,0.09,0.36-0.06,0.48l-1.4,1.1
		c-0.15,0.12-0.36,0.09-0.48-0.06s-0.09-0.36,0.06-0.48L65.29,236.89z"/>
	<path class="st6" d="M65.71,239.1c0.15,0.12,0.17,0.33,0.06,0.48c-0.12,0.15-0.33,0.17-0.48,0.06l-1.4-1.1
		c-0.15-0.12-0.17-0.33-0.06-0.48c0.12-0.15,0.33-0.17,0.48-0.06L65.71,239.1z"/>
	<path class="st6" d="M63.93,236.89c0.15-0.12,0.36-0.09,0.48,0.06c0.12,0.15,0.09,0.36-0.06,0.48l-1.4,1.1
		c-0.15,0.12-0.36,0.09-0.48-0.06c-0.12-0.15-0.09-0.36,0.06-0.48L63.93,236.89z"/>
	<path class="st6" d="M64.35,239.1c0.15,0.12,0.17,0.33,0.06,0.48c-0.12,0.15-0.33,0.17-0.48,0.06l-1.4-1.1
		c-0.15-0.12-0.17-0.33-0.06-0.48c0.12-0.15,0.33-0.17,0.48-0.06L64.35,239.1z"/>
	<path class="st6" d="M62.8,243.84c0.09,0.16,0.04,0.37-0.13,0.46c-0.16,0.09-0.37,0.04-0.46-0.13l-2.67-4.63
		c-0.09-0.16-0.04-0.37,0.13-0.46c0.16-0.09,0.37-0.04,0.46,0.13L62.8,243.84z"/>
	<path class="st6" d="M63.43,242.86c0.17,0.07,0.26,0.27,0.19,0.44c-0.07,0.17-0.27,0.26-0.44,0.19l-1.65-0.66
		c-0.17-0.07-0.26-0.27-0.19-0.44c0.07-0.17,0.27-0.26,0.44-0.19L63.43,242.86z"/>
	<path class="st6" d="M61.73,244.33c-0.03,0.19-0.2,0.32-0.39,0.29c-0.19-0.03-0.32-0.2-0.29-0.38l0.26-1.76
		c0.03-0.19,0.2-0.32,0.38-0.29c0.19,0.03,0.32,0.2,0.29,0.38L61.73,244.33z"/>
	<path class="st6" d="M62.75,241.68c0.17,0.07,0.26,0.27,0.19,0.44c-0.07,0.17-0.27,0.26-0.44,0.19l-1.65-0.66
		c-0.17-0.07-0.26-0.27-0.19-0.44c0.07-0.17,0.27-0.26,0.44-0.19L62.75,241.68z"/>
	<path class="st6" d="M61.05,243.15c-0.03,0.19-0.2,0.32-0.39,0.29c-0.19-0.03-0.32-0.2-0.29-0.39l0.26-1.76
		c0.03-0.19,0.2-0.32,0.39-0.29c0.19,0.03,0.32,0.2,0.29,0.39L61.05,243.15z"/>
	<path class="st6" d="M56.17,244.17c-0.09,0.16-0.3,0.22-0.46,0.13c-0.16-0.09-0.22-0.3-0.13-0.46l2.67-4.63
		c0.09-0.16,0.3-0.22,0.46-0.13c0.16,0.09,0.22,0.3,0.13,0.46L56.17,244.17z"/>
	<path class="st6" d="M57.33,244.23c0.03,0.19-0.1,0.36-0.29,0.38c-0.19,0.03-0.36-0.1-0.39-0.29l-0.26-1.76
		c-0.03-0.19,0.1-0.36,0.29-0.38c0.19-0.03,0.36,0.1,0.39,0.29L57.33,244.23z"/>
	<path class="st6" d="M55.21,243.49c-0.17,0.07-0.37-0.02-0.44-0.19c-0.07-0.17,0.02-0.37,0.19-0.44l1.65-0.66
		c0.17-0.07,0.37,0.02,0.44,0.19c0.07,0.17-0.02,0.37-0.19,0.44L55.21,243.49z"/>
	<path class="st6" d="M58.01,243.05c0.03,0.19-0.1,0.36-0.29,0.39c-0.19,0.03-0.36-0.1-0.38-0.29l-0.26-1.76
		c-0.03-0.19,0.1-0.36,0.29-0.39c0.19-0.03,0.36,0.1,0.39,0.29L58.01,243.05z"/>
	<path class="st6" d="M55.89,242.31c-0.17,0.07-0.37-0.02-0.44-0.19c-0.07-0.17,0.02-0.37,0.19-0.44l1.65-0.66
		c0.17-0.07,0.37,0.02,0.44,0.19c0.07,0.17-0.02,0.37-0.19,0.44L55.89,242.31z"/>
	<path class="st6" d="M52.56,238.6c-0.19,0-0.34-0.15-0.34-0.34c0-0.19,0.15-0.34,0.34-0.34h5.35c0.19,0,0.34,0.15,0.34,0.34
		c0,0.19-0.15,0.34-0.34,0.34H52.56z"/>
	<path class="st6" d="M53.09,239.63c-0.15,0.12-0.36,0.09-0.48-0.06c-0.12-0.15-0.09-0.36,0.06-0.48l1.4-1.1
		c0.15-0.12,0.36-0.09,0.48,0.06c0.12,0.15,0.09,0.36-0.06,0.48L53.09,239.63z"/>
	<path class="st6" d="M52.67,237.42c-0.15-0.12-0.17-0.33-0.06-0.48c0.12-0.15,0.33-0.17,0.48-0.06l1.4,1.1
		c0.15,0.12,0.17,0.33,0.06,0.48c-0.12,0.15-0.33,0.17-0.48,0.06L52.67,237.42z"/>
	<path class="st6" d="M54.45,239.63c-0.15,0.12-0.36,0.09-0.48-0.06c-0.12-0.15-0.09-0.36,0.06-0.48l1.4-1.1
		c0.15-0.12,0.36-0.09,0.48,0.06c0.12,0.15,0.09,0.36-0.06,0.48L54.45,239.63z"/>
	<path class="st6" d="M54.03,237.42c-0.15-0.12-0.17-0.33-0.06-0.48c0.12-0.15,0.33-0.17,0.48-0.06l1.4,1.1
		c0.15,0.12,0.17,0.33,0.06,0.48c-0.12,0.15-0.33,0.17-0.48,0.06L54.03,237.42z"/>
</g>
<g class="st17">
	<path class="st6" d="M416.95,146.6c0.7,0,1.34,0.28,1.8,0.74c0.46,0.46,0.74,1.1,0.74,1.8c0,0.7-0.28,1.34-0.74,1.8
		c-0.46,0.46-1.1,0.74-1.8,0.74c-0.7,0-1.34-0.28-1.8-0.74c-0.46-0.46-0.74-1.1-0.74-1.8c0-0.7,0.28-1.34,0.74-1.8
		C415.61,146.89,416.24,146.6,416.95,146.6L416.95,146.6z M417.99,148.1c-0.27-0.27-0.64-0.43-1.04-0.43
		c-0.41,0-0.78,0.17-1.04,0.43c-0.27,0.27-0.43,0.64-0.43,1.04c0,0.41,0.17,0.78,0.43,1.04c0.27,0.27,0.64,0.43,1.04,0.43
		c0.41,0,0.78-0.17,1.04-0.43c0.27-0.27,0.43-0.64,0.43-1.04C418.42,148.74,418.26,148.37,417.99,148.1z"/>
	<path class="st6" d="M416.41,132.33c0-0.29,0.24-0.53,0.53-0.53c0.29,0,0.53,0.24,0.53,0.53v14.81c0,0.29-0.24,0.53-0.53,0.53
		c-0.29,0-0.53-0.24-0.53-0.53V132.33z"/>
	<path class="st6" d="M414.59,134.6c-0.18-0.23-0.14-0.56,0.09-0.74c0.23-0.18,0.56-0.14,0.74,0.09l1.94,2.46
		c0.18,0.23,0.14,0.56-0.09,0.74c-0.23,0.18-0.56,0.14-0.74-0.09L414.59,134.6z"/>
	<path class="st6" d="M418.47,133.94c0.18-0.23,0.51-0.27,0.74-0.09c0.23,0.18,0.27,0.51,0.09,0.74l-1.94,2.46
		c-0.18,0.23-0.51,0.27-0.74,0.09c-0.23-0.18-0.27-0.51-0.09-0.74L418.47,133.94z"/>
	<path class="st6" d="M414.59,136.99c-0.18-0.23-0.14-0.56,0.09-0.74c0.23-0.18,0.56-0.14,0.74,0.09l1.94,2.46
		c0.18,0.23,0.14,0.56-0.09,0.74c-0.23,0.18-0.56,0.14-0.74-0.09L414.59,136.99z"/>
	<path class="st6" d="M418.47,136.33c0.18-0.23,0.51-0.27,0.74-0.09c0.23,0.18,0.27,0.51,0.09,0.74l-1.94,2.46
		c-0.18,0.23-0.51,0.27-0.74,0.09c-0.23-0.18-0.27-0.51-0.09-0.74L418.47,136.33z"/>
	<path class="st6" d="M431.25,140.28c0.25-0.15,0.58-0.06,0.73,0.19c0.15,0.25,0.06,0.58-0.19,0.73l-12.82,7.41
		c-0.25,0.15-0.58,0.06-0.73-0.19c-0.15-0.25-0.06-0.58,0.19-0.73L431.25,140.28z"/>
	<path class="st6" d="M428.37,139.83c0.11-0.27,0.42-0.41,0.69-0.3c0.27,0.11,0.41,0.42,0.3,0.69l-1.16,2.91
		c-0.11,0.27-0.42,0.41-0.69,0.3c-0.27-0.11-0.41-0.42-0.3-0.69L428.37,139.83z"/>
	<path class="st6" d="M430.88,142.86c0.29,0.04,0.49,0.31,0.45,0.6c-0.04,0.29-0.31,0.49-0.6,0.45l-3.1-0.45
		c-0.29-0.04-0.49-0.31-0.45-0.6c0.04-0.29,0.31-0.49,0.6-0.45L430.88,142.86z"/>
	<path class="st6" d="M426.3,141.03c0.11-0.27,0.42-0.41,0.69-0.3c0.27,0.11,0.41,0.42,0.3,0.69l-1.16,2.91
		c-0.11,0.27-0.42,0.41-0.69,0.3c-0.27-0.11-0.41-0.42-0.3-0.69L426.3,141.03z"/>
	<path class="st6" d="M428.8,144.06c0.29,0.04,0.49,0.31,0.45,0.6c-0.04,0.29-0.31,0.49-0.6,0.45l-3.1-0.45
		c-0.29-0.04-0.49-0.31-0.45-0.6c0.04-0.29,0.31-0.49,0.6-0.45L428.8,144.06z"/>
	<path class="st6" d="M431.78,157.1c0.25,0.15,0.34,0.47,0.19,0.73c-0.15,0.25-0.47,0.34-0.73,0.19l-12.83-7.4
		c-0.25-0.15-0.34-0.47-0.19-0.73c0.15-0.25,0.47-0.34,0.73-0.19L431.78,157.1z"/>
	<path class="st6" d="M430.73,154.38c0.29-0.04,0.56,0.16,0.6,0.45c0.04,0.29-0.16,0.56-0.45,0.6l-3.1,0.45
		c-0.29,0.04-0.56-0.16-0.6-0.45c-0.04-0.29,0.16-0.56,0.45-0.6L430.73,154.38z"/>
	<path class="st6" d="M429.35,158.07c0.11,0.27-0.03,0.58-0.3,0.69c-0.27,0.11-0.58-0.03-0.69-0.3l-1.16-2.91
		c-0.11-0.27,0.03-0.58,0.3-0.69c0.27-0.11,0.58,0.03,0.69,0.3L429.35,158.07z"/>
	<path class="st6" d="M428.65,153.18c0.29-0.04,0.56,0.16,0.6,0.45c0.04,0.29-0.16,0.56-0.45,0.6l-3.1,0.45
		c-0.29,0.04-0.56-0.16-0.6-0.45c-0.04-0.29,0.16-0.56,0.45-0.6L428.65,153.18z"/>
	<path class="st6" d="M427.28,156.87c0.11,0.27-0.03,0.58-0.3,0.69c-0.27,0.11-0.58-0.02-0.69-0.3l-1.16-2.91
		c-0.11-0.27,0.03-0.58,0.3-0.69c0.27-0.11,0.58,0.03,0.69,0.3L427.28,156.87z"/>
	<path class="st6" d="M417.48,165.96c0,0.29-0.24,0.53-0.53,0.53c-0.29,0-0.53-0.24-0.53-0.53v-14.81c0-0.29,0.24-0.53,0.53-0.53
		c0.29,0,0.53,0.24,0.53,0.53V165.96z"/>
	<path class="st6" d="M419.3,163.7c0.18,0.23,0.14,0.56-0.09,0.74c-0.23,0.18-0.56,0.14-0.74-0.09l-1.94-2.46
		c-0.18-0.23-0.14-0.56,0.09-0.74c0.23-0.18,0.56-0.14,0.74,0.09L419.3,163.7z"/>
	<path class="st6" d="M415.42,164.35c-0.18,0.23-0.51,0.27-0.74,0.09c-0.23-0.18-0.27-0.51-0.09-0.74l1.94-2.46
		c0.18-0.23,0.51-0.27,0.74-0.09c0.23,0.18,0.27,0.51,0.09,0.74L415.42,164.35z"/>
	<path class="st6" d="M419.3,161.3c0.18,0.23,0.14,0.56-0.09,0.74c-0.23,0.18-0.56,0.14-0.74-0.09l-1.94-2.46
		c-0.18-0.23-0.14-0.56,0.09-0.74c0.23-0.18,0.56-0.14,0.74,0.09L419.3,161.3z"/>
	<path class="st6" d="M415.42,161.96c-0.18,0.23-0.51,0.27-0.74,0.09c-0.23-0.18-0.27-0.52-0.09-0.74l1.94-2.46
		c0.18-0.23,0.51-0.27,0.74-0.09c0.23,0.18,0.27,0.51,0.09,0.74L415.42,161.96z"/>
	<path class="st6" d="M402.65,158.01c-0.25,0.15-0.58,0.06-0.73-0.19c-0.15-0.25-0.06-0.58,0.19-0.73l12.82-7.4
		c0.25-0.15,0.58-0.06,0.73,0.19c0.15,0.25,0.06,0.58-0.19,0.73L402.65,158.01z"/>
	<path class="st6" d="M405.52,158.46c-0.11,0.27-0.42,0.41-0.69,0.3c-0.27-0.11-0.41-0.42-0.3-0.69l1.16-2.91
		c0.11-0.27,0.42-0.41,0.69-0.3c0.27,0.11,0.4,0.42,0.3,0.69L405.52,158.46z"/>
	<path class="st6" d="M403.01,155.43c-0.29-0.04-0.49-0.31-0.45-0.6c0.04-0.29,0.31-0.49,0.6-0.45l3.1,0.45
		c0.29,0.04,0.49,0.31,0.45,0.6c-0.04,0.29-0.31,0.49-0.6,0.45L403.01,155.43z"/>
	<path class="st6" d="M407.59,157.26c-0.11,0.27-0.42,0.41-0.69,0.3c-0.27-0.11-0.41-0.42-0.3-0.69l1.16-2.91
		c0.11-0.27,0.42-0.41,0.69-0.3c0.27,0.11,0.41,0.42,0.3,0.69L407.59,157.26z"/>
	<path class="st6" d="M405.09,154.24c-0.29-0.04-0.49-0.31-0.45-0.6c0.04-0.29,0.31-0.49,0.6-0.45l3.1,0.45
		c0.29,0.04,0.49,0.31,0.45,0.6c-0.04,0.29-0.31,0.49-0.6,0.45L405.09,154.24z"/>
	<path class="st6" d="M402.11,141.2c-0.25-0.15-0.34-0.47-0.19-0.73c0.15-0.25,0.47-0.34,0.73-0.19l12.83,7.4
		c0.25,0.15,0.34,0.47,0.19,0.73c-0.15,0.25-0.47,0.34-0.73,0.19L402.11,141.2z"/>
	<path class="st6" d="M403.16,143.91c-0.29,0.04-0.56-0.16-0.6-0.45c-0.04-0.29,0.16-0.56,0.45-0.6l3.1-0.45
		c0.29-0.04,0.56,0.16,0.6,0.45c0.04,0.29-0.16,0.56-0.45,0.6L403.16,143.91z"/>
	<path class="st6" d="M404.54,140.22c-0.11-0.27,0.03-0.58,0.3-0.69c0.27-0.11,0.58,0.03,0.69,0.3l1.16,2.91
		c0.11,0.27-0.03,0.58-0.3,0.69c-0.27,0.11-0.58-0.03-0.69-0.3L404.54,140.22z"/>
	<path class="st6" d="M405.24,145.11c-0.29,0.04-0.56-0.16-0.6-0.45c-0.04-0.29,0.16-0.56,0.45-0.6l3.1-0.45
		c0.29-0.04,0.56,0.16,0.6,0.45c0.04,0.29-0.16,0.56-0.45,0.6L405.24,145.11z"/>
	<path class="st6" d="M406.61,141.42c-0.11-0.27,0.03-0.58,0.3-0.69c0.27-0.11,0.58,0.03,0.69,0.3l1.16,2.91
		c0.11,0.27-0.03,0.58-0.3,0.69c-0.27,0.11-0.58-0.03-0.69-0.3L406.61,141.42z"/>
	<path class="st6" d="M411.31,140.44c-0.15-0.25-0.06-0.58,0.2-0.72c0.25-0.15,0.58-0.06,0.72,0.2l4.17,7.23
		c0.15,0.25,0.06,0.58-0.2,0.72c-0.25,0.15-0.58,0.06-0.72-0.19L411.31,140.44z"/>
	<path class="st6" d="M410.33,141.97c-0.27-0.11-0.41-0.42-0.3-0.69c0.11-0.27,0.42-0.41,0.69-0.3l2.58,1.03
		c0.27,0.11,0.41,0.42,0.3,0.69c-0.11,0.27-0.42,0.4-0.69,0.3L410.33,141.97z"/>
	<path class="st6" d="M412.98,139.68c0.04-0.29,0.31-0.49,0.6-0.45c0.29,0.04,0.49,0.31,0.45,0.6l-0.4,2.75
		c-0.04,0.29-0.31,0.49-0.6,0.45c-0.29-0.04-0.49-0.31-0.45-0.6L412.98,139.68z"/>
	<path class="st6" d="M411.39,143.81c-0.27-0.11-0.41-0.42-0.3-0.69c0.11-0.27,0.42-0.41,0.69-0.3l2.58,1.03
		c0.27,0.11,0.41,0.42,0.3,0.69c-0.11,0.27-0.42,0.41-0.69,0.3L411.39,143.81z"/>
	<path class="st6" d="M414.05,141.52c0.04-0.29,0.31-0.49,0.6-0.45c0.29,0.04,0.49,0.31,0.45,0.6l-0.4,2.75
		c-0.04,0.29-0.31,0.49-0.6,0.45c-0.29-0.04-0.49-0.31-0.45-0.6L414.05,141.52z"/>
	<path class="st6" d="M421.66,139.91c0.15-0.25,0.47-0.34,0.72-0.2c0.25,0.15,0.34,0.47,0.2,0.72l-4.17,7.23
		c-0.15,0.25-0.47,0.34-0.72,0.19c-0.25-0.15-0.34-0.47-0.2-0.72L421.66,139.91z"/>
	<path class="st6" d="M419.85,139.83c-0.04-0.29,0.16-0.56,0.45-0.6c0.29-0.04,0.56,0.16,0.6,0.45l0.4,2.75
		c0.04,0.29-0.16,0.56-0.45,0.6c-0.29,0.04-0.56-0.16-0.6-0.45L419.85,139.83z"/>
	<path class="st6" d="M423.17,140.98c0.27-0.11,0.58,0.03,0.69,0.3c0.11,0.27-0.03,0.58-0.3,0.69l-2.58,1.03
		c-0.27,0.11-0.58-0.03-0.69-0.3c-0.11-0.27,0.03-0.58,0.3-0.69L423.17,140.98z"/>
	<path class="st6" d="M418.79,141.67c-0.04-0.29,0.16-0.56,0.45-0.6c0.29-0.04,0.56,0.16,0.6,0.45l0.4,2.75
		c0.04,0.29-0.16,0.56-0.45,0.6c-0.29,0.04-0.56-0.16-0.6-0.45L418.79,141.67z"/>
	<path class="st6" d="M422.11,142.82c0.27-0.11,0.58,0.03,0.69,0.3c0.11,0.27-0.03,0.58-0.3,0.69l-2.58,1.03
		c-0.27,0.11-0.58-0.03-0.69-0.3c-0.11-0.27,0.02-0.58,0.3-0.69L422.11,142.82z"/>
	<path class="st6" d="M427.3,148.61c0.29,0,0.53,0.24,0.53,0.53c0,0.29-0.24,0.53-0.53,0.53h-8.35c-0.29,0-0.53-0.24-0.53-0.53
		c0-0.29,0.24-0.53,0.53-0.53H427.3z"/>
	<path class="st6" d="M426.47,147.01c0.23-0.18,0.56-0.14,0.74,0.09c0.18,0.23,0.14,0.56-0.09,0.74l-2.18,1.72
		c-0.23,0.18-0.56,0.14-0.74-0.09c-0.18-0.23-0.14-0.56,0.09-0.74L426.47,147.01z"/>
	<path class="st6" d="M427.13,150.45c0.23,0.18,0.27,0.51,0.09,0.74c-0.18,0.23-0.51,0.27-0.74,0.09l-2.18-1.72
		c-0.23-0.18-0.27-0.51-0.09-0.74c0.18-0.23,0.51-0.27,0.74-0.09L427.13,150.45z"/>
	<path class="st6" d="M424.35,147.01c0.23-0.18,0.56-0.14,0.74,0.09c0.18,0.23,0.14,0.56-0.09,0.74l-2.18,1.72
		c-0.23,0.18-0.56,0.14-0.74-0.09c-0.18-0.23-0.14-0.56,0.09-0.74L424.35,147.01z"/>
	<path class="st6" d="M425,150.45c0.23,0.18,0.27,0.51,0.09,0.74c-0.18,0.23-0.51,0.27-0.74,0.09l-2.18-1.72
		c-0.23-0.18-0.27-0.51-0.09-0.74c0.18-0.23,0.51-0.27,0.74-0.09L425,150.45z"/>
	<path class="st6" d="M422.58,157.85c0.15,0.25,0.06,0.58-0.2,0.72c-0.25,0.15-0.58,0.06-0.72-0.2l-4.17-7.23
		c-0.15-0.25-0.06-0.58,0.2-0.72c0.25-0.15,0.58-0.06,0.72,0.2L422.58,157.85z"/>
	<path class="st6" d="M423.56,156.32c0.27,0.11,0.41,0.42,0.3,0.69c-0.11,0.27-0.42,0.41-0.69,0.3l-2.58-1.03
		c-0.27-0.11-0.41-0.42-0.3-0.69c0.11-0.27,0.42-0.41,0.69-0.3L423.56,156.32z"/>
	<path class="st6" d="M420.91,158.61c-0.04,0.29-0.31,0.49-0.6,0.45c-0.29-0.04-0.49-0.31-0.45-0.6l0.4-2.75
		c0.04-0.29,0.31-0.49,0.6-0.45c0.29,0.04,0.49,0.31,0.45,0.6L420.91,158.61z"/>
	<path class="st6" d="M422.5,154.49c0.27,0.11,0.41,0.42,0.3,0.69c-0.11,0.27-0.42,0.41-0.69,0.3l-2.58-1.03
		c-0.27-0.11-0.41-0.42-0.3-0.69c0.11-0.27,0.42-0.41,0.69-0.3L422.5,154.49z"/>
	<path class="st6" d="M419.85,156.78c-0.04,0.29-0.31,0.49-0.6,0.45c-0.29-0.04-0.49-0.31-0.45-0.6l0.4-2.75
		c0.04-0.29,0.31-0.49,0.6-0.45c0.29,0.04,0.49,0.31,0.45,0.6L419.85,156.78z"/>
	<path class="st6" d="M412.23,158.38c-0.15,0.25-0.47,0.34-0.72,0.2c-0.25-0.15-0.34-0.47-0.2-0.72l4.17-7.23
		c0.15-0.25,0.47-0.34,0.72-0.2c0.25,0.15,0.34,0.47,0.2,0.72L412.23,158.38z"/>
	<path class="st6" d="M414.04,158.46c0.04,0.29-0.16,0.56-0.45,0.6c-0.29,0.04-0.56-0.16-0.6-0.45l-0.4-2.75
		c-0.04-0.29,0.16-0.56,0.45-0.6c0.29-0.04,0.56,0.16,0.6,0.45L414.04,158.46z"/>
	<path class="st6" d="M410.72,157.31c-0.27,0.11-0.58-0.03-0.69-0.3c-0.11-0.27,0.02-0.58,0.3-0.69l2.58-1.03
		c0.27-0.11,0.58,0.02,0.69,0.3c0.11,0.27-0.03,0.58-0.3,0.69L410.72,157.31z"/>
	<path class="st6" d="M415.1,156.63c0.04,0.29-0.16,0.56-0.45,0.6c-0.29,0.04-0.56-0.16-0.6-0.45l-0.4-2.75
		c-0.04-0.29,0.16-0.56,0.45-0.6c0.29-0.04,0.56,0.16,0.6,0.45L415.1,156.63z"/>
	<path class="st6" d="M411.79,155.47c-0.27,0.11-0.58-0.03-0.69-0.3c-0.11-0.27,0.03-0.58,0.3-0.69l2.58-1.03
		c0.27-0.11,0.58,0.02,0.69,0.3c0.11,0.27-0.03,0.58-0.3,0.69L411.79,155.47z"/>
	<path class="st6" d="M406.59,149.68c-0.29,0-0.53-0.24-0.53-0.53c0-0.29,0.24-0.53,0.53-0.53h8.35c0.29,0,0.53,0.24,0.53,0.53
		c0,0.29-0.24,0.53-0.53,0.53H406.59z"/>
	<path class="st6" d="M407.42,151.28c-0.23,0.18-0.56,0.14-0.74-0.09c-0.18-0.23-0.14-0.56,0.09-0.74l2.18-1.72
		c0.23-0.18,0.56-0.14,0.74,0.09c0.18,0.23,0.14,0.56-0.09,0.74L407.42,151.28z"/>
	<path class="st6" d="M406.76,147.84c-0.23-0.18-0.27-0.51-0.09-0.74c0.18-0.23,0.51-0.27,0.74-0.09l2.18,1.72
		c0.23,0.18,0.27,0.51,0.09,0.74c-0.18,0.23-0.51,0.27-0.74,0.09L406.76,147.84z"/>
	<path class="st6" d="M409.54,151.28c-0.23,0.18-0.56,0.14-0.74-0.09c-0.18-0.23-0.14-0.56,0.09-0.74l2.18-1.72
		c0.23-0.18,0.56-0.14,0.74,0.09c0.18,0.23,0.14,0.56-0.09,0.74L409.54,151.28z"/>
	<path class="st6" d="M408.89,147.84c-0.23-0.18-0.27-0.51-0.09-0.74c0.18-0.23,0.51-0.27,0.74-0.09l2.18,1.72
		c0.23,0.18,0.27,0.51,0.09,0.74c-0.18,0.23-0.51,0.27-0.74,0.09L408.89,147.84z"/>
</g>
<g class="st17">
	<path class="st6" d="M112.92,437.41c0.61,0,1.16,0.25,1.56,0.65c0.4,0.4,0.65,0.95,0.65,1.56c0,0.61-0.25,1.16-0.65,1.56
		c-0.4,0.4-0.95,0.65-1.56,0.65c-0.61,0-1.16-0.25-1.56-0.65c-0.4-0.4-0.65-0.95-0.65-1.56c0-0.61,0.25-1.16,0.65-1.56
		C111.76,437.66,112.31,437.41,112.92,437.41L112.92,437.41z M113.83,438.71c-0.23-0.23-0.55-0.37-0.91-0.37s-0.67,0.14-0.91,0.37
		c-0.23,0.23-0.38,0.55-0.38,0.91c0,0.35,0.14,0.67,0.38,0.91c0.23,0.23,0.55,0.38,0.91,0.38s0.67-0.14,0.91-0.38
		c0.23-0.23,0.38-0.55,0.38-0.91C114.2,439.26,114.06,438.94,113.83,438.71z"/>
	<path class="st6" d="M112.46,425.03c0-0.25,0.21-0.46,0.46-0.46c0.25,0,0.46,0.21,0.46,0.46v12.84c0,0.26-0.21,0.46-0.46,0.46
		c-0.25,0-0.46-0.21-0.46-0.46V425.03z"/>
	<path class="st6" d="M110.88,427c-0.16-0.2-0.12-0.49,0.08-0.65c0.2-0.16,0.49-0.12,0.65,0.08l1.68,2.13
		c0.16,0.2,0.12,0.49-0.08,0.64c-0.2,0.16-0.49,0.12-0.65-0.08L110.88,427z"/>
	<path class="st6" d="M114.24,426.43c0.16-0.2,0.45-0.23,0.65-0.08c0.2,0.16,0.23,0.45,0.08,0.65l-1.68,2.13
		c-0.16,0.2-0.45,0.23-0.65,0.08c-0.2-0.16-0.23-0.45-0.08-0.64L114.24,426.43z"/>
	<path class="st6" d="M110.88,429.07c-0.16-0.2-0.12-0.49,0.08-0.65c0.2-0.16,0.49-0.12,0.65,0.08l1.68,2.13
		c0.16,0.2,0.12,0.49-0.08,0.64c-0.2,0.16-0.49,0.12-0.65-0.08L110.88,429.07z"/>
	<path class="st6" d="M114.24,428.5c0.16-0.2,0.45-0.23,0.65-0.08c0.2,0.16,0.23,0.45,0.08,0.65l-1.68,2.13
		c-0.16,0.2-0.45,0.23-0.65,0.08c-0.2-0.16-0.23-0.45-0.08-0.64L114.24,428.5z"/>
	<path class="st6" d="M125.32,431.92c0.22-0.13,0.5-0.05,0.63,0.17c0.13,0.22,0.05,0.5-0.17,0.63l-11.12,6.42
		c-0.22,0.13-0.5,0.05-0.63-0.17c-0.13-0.22-0.05-0.5,0.17-0.63L125.32,431.92z"/>
	<path class="st6" d="M122.82,431.54c0.09-0.24,0.36-0.35,0.6-0.26c0.24,0.09,0.35,0.36,0.26,0.6l-1,2.52
		c-0.09,0.24-0.36,0.35-0.6,0.26c-0.24-0.09-0.35-0.36-0.26-0.6L122.82,431.54z"/>
	<path class="st6" d="M125,434.16c0.25,0.04,0.43,0.27,0.39,0.52c-0.04,0.25-0.27,0.43-0.52,0.39l-2.69-0.39
		c-0.25-0.04-0.43-0.27-0.39-0.52c0.04-0.25,0.27-0.43,0.52-0.39L125,434.16z"/>
	<path class="st6" d="M121.03,432.57c0.09-0.24,0.36-0.35,0.6-0.26c0.24,0.09,0.35,0.36,0.26,0.6l-1,2.52
		c-0.09,0.24-0.36,0.35-0.6,0.26c-0.24-0.09-0.35-0.36-0.26-0.6L121.03,432.57z"/>
	<path class="st6" d="M123.2,435.2c0.25,0.04,0.43,0.27,0.39,0.52c-0.04,0.25-0.27,0.43-0.52,0.39l-2.69-0.39
		c-0.25-0.04-0.43-0.27-0.39-0.52c0.04-0.25,0.27-0.43,0.52-0.39L123.2,435.2z"/>
	<path class="st6" d="M125.78,446.5c0.22,0.13,0.3,0.41,0.17,0.63c-0.13,0.22-0.41,0.29-0.63,0.17l-11.12-6.42
		c-0.22-0.13-0.29-0.41-0.17-0.63c0.13-0.22,0.41-0.29,0.63-0.17L125.78,446.5z"/>
	<path class="st6" d="M124.87,444.15c0.25-0.04,0.48,0.14,0.52,0.39c0.04,0.25-0.14,0.48-0.39,0.52l-2.69,0.39
		c-0.25,0.04-0.48-0.14-0.52-0.39c-0.04-0.25,0.14-0.48,0.39-0.52L124.87,444.15z"/>
	<path class="st6" d="M123.68,447.35c0.09,0.24-0.02,0.5-0.26,0.6c-0.24,0.09-0.5-0.02-0.6-0.26l-1-2.52
		c-0.09-0.24,0.02-0.5,0.26-0.6c0.24-0.09,0.5,0.02,0.6,0.26L123.68,447.35z"/>
	<path class="st6" d="M123.07,443.11c0.25-0.04,0.48,0.14,0.52,0.39c0.04,0.25-0.14,0.49-0.39,0.52l-2.69,0.39
		c-0.25,0.04-0.48-0.14-0.52-0.39c-0.04-0.25,0.14-0.48,0.39-0.52L123.07,443.11z"/>
	<path class="st6" d="M121.88,446.31c0.09,0.24-0.02,0.5-0.26,0.6c-0.24,0.09-0.5-0.02-0.6-0.26l-1-2.52
		c-0.09-0.24,0.02-0.5,0.26-0.6c0.24-0.09,0.5,0.02,0.6,0.26L121.88,446.31z"/>
	<path class="st6" d="M113.38,454.19c0,0.25-0.21,0.46-0.46,0.46c-0.25,0-0.46-0.21-0.46-0.46v-12.84c0-0.25,0.21-0.46,0.46-0.46
		c0.25,0,0.46,0.21,0.46,0.46V454.19z"/>
	<path class="st6" d="M114.96,452.23c0.16,0.2,0.12,0.49-0.08,0.65c-0.2,0.16-0.49,0.12-0.65-0.08l-1.68-2.13
		c-0.16-0.2-0.12-0.49,0.08-0.65c0.2-0.16,0.49-0.12,0.65,0.08L114.96,452.23z"/>
	<path class="st6" d="M111.6,452.8c-0.16,0.2-0.45,0.23-0.65,0.08c-0.2-0.16-0.23-0.45-0.08-0.65l1.68-2.13
		c0.16-0.2,0.45-0.23,0.65-0.08c0.2,0.16,0.23,0.45,0.08,0.65L111.6,452.8z"/>
	<path class="st6" d="M114.96,450.15c0.16,0.2,0.12,0.49-0.08,0.65c-0.2,0.16-0.49,0.12-0.65-0.08l-1.68-2.13
		c-0.16-0.2-0.12-0.49,0.08-0.65c0.2-0.16,0.49-0.12,0.64,0.08L114.96,450.15z"/>
	<path class="st6" d="M111.6,450.72c-0.16,0.2-0.45,0.23-0.65,0.08c-0.2-0.16-0.23-0.45-0.08-0.65l1.68-2.13
		c0.16-0.2,0.45-0.23,0.65-0.08c0.2,0.16,0.23,0.45,0.08,0.65L111.6,450.72z"/>
	<path class="st6" d="M100.52,447.3c-0.22,0.13-0.5,0.05-0.63-0.17c-0.13-0.22-0.05-0.5,0.17-0.63l11.12-6.42
		c0.22-0.13,0.5-0.05,0.63,0.17c0.13,0.22,0.05,0.5-0.17,0.63L100.52,447.3z"/>
	<path class="st6" d="M103.02,447.69c-0.09,0.24-0.36,0.35-0.6,0.26c-0.24-0.09-0.35-0.36-0.26-0.6l1-2.52
		c0.09-0.24,0.36-0.35,0.6-0.26c0.24,0.09,0.35,0.36,0.26,0.6L103.02,447.69z"/>
	<path class="st6" d="M100.84,445.06c-0.25-0.04-0.43-0.27-0.39-0.52c0.04-0.25,0.27-0.43,0.52-0.39l2.69,0.39
		c0.25,0.04,0.43,0.27,0.39,0.52c-0.04,0.25-0.27,0.43-0.52,0.39L100.84,445.06z"/>
	<path class="st6" d="M104.81,446.65c-0.09,0.24-0.36,0.35-0.6,0.26c-0.24-0.09-0.35-0.36-0.26-0.6l1-2.52
		c0.09-0.24,0.36-0.35,0.6-0.26c0.24,0.09,0.35,0.36,0.26,0.6L104.81,446.65z"/>
	<path class="st6" d="M102.64,444.02c-0.25-0.04-0.43-0.27-0.39-0.52c0.04-0.25,0.27-0.43,0.52-0.39l2.69,0.39
		c0.25,0.04,0.43,0.27,0.39,0.52c-0.04,0.25-0.27,0.43-0.52,0.39L102.64,444.02z"/>
	<path class="st6" d="M100.06,432.72c-0.22-0.13-0.3-0.41-0.17-0.63c0.13-0.22,0.41-0.29,0.63-0.17l11.12,6.42
		c0.22,0.13,0.29,0.41,0.17,0.63c-0.13,0.22-0.41,0.3-0.63,0.17L100.06,432.72z"/>
	<path class="st6" d="M100.97,435.08c-0.25,0.04-0.49-0.14-0.52-0.39c-0.04-0.25,0.14-0.49,0.39-0.52l2.69-0.39
		c0.25-0.04,0.48,0.14,0.52,0.39c0.04,0.25-0.14,0.49-0.39,0.52L100.97,435.08z"/>
	<path class="st6" d="M102.16,431.88c-0.09-0.24,0.02-0.5,0.26-0.6c0.24-0.09,0.5,0.02,0.6,0.26l1,2.52c0.09,0.24-0.02,0.5-0.26,0.6
		c-0.24,0.09-0.5-0.02-0.6-0.26L102.16,431.88z"/>
	<path class="st6" d="M102.77,436.11c-0.25,0.04-0.49-0.14-0.52-0.39c-0.04-0.25,0.14-0.49,0.39-0.52l2.69-0.39
		c0.25-0.04,0.48,0.14,0.52,0.39c0.04,0.25-0.14,0.49-0.39,0.52L102.77,436.11z"/>
	<path class="st6" d="M103.96,432.91c-0.09-0.24,0.02-0.5,0.26-0.6c0.24-0.09,0.5,0.02,0.6,0.26l1,2.52c0.09,0.24-0.02,0.5-0.26,0.6
		c-0.24,0.09-0.5-0.02-0.6-0.26L103.96,432.91z"/>
	<path class="st6" d="M108.03,432.07c-0.13-0.22-0.05-0.5,0.17-0.63c0.22-0.13,0.5-0.05,0.63,0.17l3.62,6.27
		c0.13,0.22,0.05,0.5-0.17,0.63c-0.22,0.13-0.5,0.05-0.63-0.17L108.03,432.07z"/>
	<path class="st6" d="M107.19,433.39c-0.24-0.09-0.35-0.36-0.26-0.6c0.09-0.24,0.36-0.35,0.6-0.26l2.24,0.89
		c0.24,0.09,0.35,0.36,0.26,0.6c-0.09,0.24-0.36,0.35-0.6,0.26L107.19,433.39z"/>
	<path class="st6" d="M109.49,431.4c0.04-0.25,0.27-0.43,0.52-0.39c0.25,0.04,0.43,0.27,0.39,0.52l-0.35,2.38
		c-0.04,0.25-0.27,0.43-0.52,0.39c-0.25-0.04-0.43-0.27-0.39-0.52L109.49,431.4z"/>
	<path class="st6" d="M108.11,434.98c-0.24-0.09-0.35-0.36-0.26-0.6c0.09-0.24,0.36-0.35,0.6-0.26l2.24,0.89
		c0.24,0.09,0.35,0.36,0.26,0.6c-0.09,0.24-0.36,0.35-0.6,0.26L108.11,434.98z"/>
	<path class="st6" d="M110.41,433c0.04-0.25,0.27-0.43,0.52-0.39c0.25,0.04,0.43,0.27,0.39,0.52l-0.35,2.38
		c-0.04,0.25-0.27,0.43-0.52,0.39c-0.25-0.04-0.43-0.27-0.39-0.52L110.41,433z"/>
	<path class="st6" d="M117.01,431.61c0.13-0.22,0.41-0.3,0.63-0.17c0.22,0.13,0.3,0.41,0.17,0.63l-3.62,6.27
		c-0.13,0.22-0.41,0.3-0.63,0.17c-0.22-0.13-0.3-0.41-0.17-0.63L117.01,431.61z"/>
	<path class="st6" d="M115.44,431.53c-0.04-0.25,0.14-0.49,0.39-0.52c0.25-0.04,0.49,0.14,0.52,0.39l0.35,2.38
		c0.04,0.25-0.14,0.49-0.39,0.52c-0.25,0.04-0.49-0.14-0.52-0.39L115.44,431.53z"/>
	<path class="st6" d="M118.31,432.53c0.24-0.09,0.5,0.02,0.6,0.26c0.09,0.24-0.02,0.5-0.26,0.6l-2.24,0.89
		c-0.24,0.09-0.5-0.02-0.6-0.26c-0.09-0.24,0.02-0.5,0.26-0.6L118.31,432.53z"/>
	<path class="st6" d="M114.52,433.13c-0.04-0.25,0.14-0.49,0.39-0.52c0.25-0.04,0.49,0.14,0.52,0.39l0.35,2.38
		c0.04,0.25-0.14,0.49-0.39,0.52c-0.25,0.04-0.49-0.14-0.52-0.39L114.52,433.13z"/>
	<path class="st6" d="M117.39,434.13c0.24-0.09,0.5,0.02,0.6,0.26c0.09,0.24-0.02,0.5-0.26,0.6l-2.24,0.89
		c-0.24,0.09-0.5-0.02-0.6-0.26c-0.09-0.24,0.02-0.5,0.26-0.6L117.39,434.13z"/>
	<path class="st6" d="M121.9,439.15c0.25,0,0.46,0.21,0.46,0.46c0,0.25-0.21,0.46-0.46,0.46h-7.23c-0.25,0-0.46-0.21-0.46-0.46
		c0-0.25,0.21-0.46,0.46-0.46H121.9z"/>
	<path class="st6" d="M121.18,437.76c0.2-0.16,0.49-0.12,0.65,0.08c0.16,0.2,0.12,0.49-0.08,0.65l-1.89,1.49
		c-0.2,0.16-0.49,0.12-0.65-0.08c-0.16-0.2-0.12-0.49,0.08-0.65L121.18,437.76z"/>
	<path class="st6" d="M121.75,440.74c0.2,0.16,0.23,0.45,0.08,0.65c-0.16,0.2-0.45,0.23-0.65,0.08l-1.89-1.49
		c-0.2-0.16-0.23-0.45-0.08-0.65c0.16-0.2,0.45-0.23,0.65-0.08L121.75,440.74z"/>
	<path class="st6" d="M119.34,437.76c0.2-0.16,0.49-0.12,0.65,0.08c0.16,0.2,0.12,0.49-0.08,0.65l-1.89,1.49
		c-0.2,0.16-0.49,0.12-0.65-0.08c-0.16-0.2-0.12-0.49,0.08-0.65L119.34,437.76z"/>
	<path class="st6" d="M119.91,440.74c0.2,0.16,0.23,0.45,0.08,0.65c-0.16,0.2-0.45,0.23-0.65,0.08l-1.89-1.49
		c-0.2-0.16-0.23-0.45-0.08-0.65c0.16-0.2,0.45-0.23,0.65-0.08L119.91,440.74z"/>
	<path class="st6" d="M117.81,447.16c0.13,0.22,0.05,0.5-0.17,0.63c-0.22,0.13-0.5,0.05-0.63-0.17l-3.62-6.27
		c-0.13-0.22-0.05-0.5,0.17-0.63c0.22-0.13,0.5-0.05,0.63,0.17L117.81,447.16z"/>
	<path class="st6" d="M118.65,445.84c0.24,0.09,0.35,0.36,0.26,0.6c-0.09,0.24-0.36,0.35-0.6,0.26l-2.24-0.89
		c-0.24-0.09-0.35-0.36-0.26-0.6c0.09-0.24,0.36-0.35,0.6-0.26L118.65,445.84z"/>
	<path class="st6" d="M116.35,447.82c-0.04,0.25-0.27,0.43-0.52,0.39c-0.25-0.04-0.43-0.27-0.39-0.52l0.35-2.38
		c0.04-0.25,0.27-0.43,0.52-0.39c0.25,0.04,0.43,0.27,0.39,0.52L116.35,447.82z"/>
	<path class="st6" d="M117.73,444.24c0.24,0.09,0.35,0.36,0.26,0.6c-0.09,0.24-0.36,0.35-0.6,0.26l-2.24-0.89
		c-0.24-0.09-0.35-0.36-0.26-0.6c0.09-0.24,0.36-0.35,0.6-0.26L117.73,444.24z"/>
	<path class="st6" d="M115.43,446.23c-0.04,0.25-0.27,0.43-0.52,0.39c-0.25-0.04-0.43-0.27-0.39-0.52l0.35-2.38
		c0.04-0.25,0.27-0.43,0.52-0.39c0.25,0.04,0.43,0.27,0.39,0.52L115.43,446.23z"/>
	<path class="st6" d="M108.83,447.62c-0.13,0.22-0.41,0.3-0.63,0.17c-0.22-0.13-0.3-0.41-0.17-0.63l3.62-6.27
		c0.13-0.22,0.41-0.3,0.63-0.17c0.22,0.13,0.3,0.41,0.17,0.63L108.83,447.62z"/>
	<path class="st6" d="M110.4,447.69c0.04,0.25-0.14,0.49-0.39,0.52c-0.25,0.04-0.49-0.14-0.52-0.39l-0.35-2.38
		c-0.04-0.25,0.14-0.49,0.39-0.52c0.25-0.04,0.49,0.14,0.52,0.39L110.4,447.69z"/>
	<path class="st6" d="M107.53,446.69c-0.24,0.09-0.5-0.02-0.6-0.26c-0.09-0.24,0.02-0.5,0.26-0.6l2.24-0.89
		c0.24-0.09,0.5,0.02,0.6,0.26c0.09,0.24-0.02,0.5-0.26,0.6L107.53,446.69z"/>
	<path class="st6" d="M111.32,446.1c0.04,0.25-0.14,0.48-0.39,0.52c-0.25,0.04-0.48-0.14-0.52-0.39l-0.35-2.38
		c-0.04-0.25,0.14-0.49,0.39-0.52c0.25-0.04,0.49,0.14,0.52,0.39L111.32,446.1z"/>
	<path class="st6" d="M108.45,445.1c-0.24,0.09-0.5-0.02-0.6-0.26c-0.09-0.24,0.02-0.5,0.26-0.6l2.24-0.89
		c0.24-0.09,0.5,0.02,0.6,0.26c0.09,0.24-0.02,0.5-0.26,0.6L108.45,445.1z"/>
	<path class="st6" d="M103.94,440.07c-0.25,0-0.46-0.21-0.46-0.46c0-0.25,0.21-0.46,0.46-0.46h7.23c0.25,0,0.46,0.21,0.46,0.46
		c0,0.25-0.21,0.46-0.46,0.46H103.94z"/>
	<path class="st6" d="M104.66,441.47c-0.2,0.16-0.49,0.12-0.65-0.08c-0.16-0.2-0.12-0.49,0.08-0.65l1.89-1.49
		c0.2-0.16,0.49-0.12,0.65,0.08c0.16,0.2,0.12,0.49-0.08,0.65L104.66,441.47z"/>
	<path class="st6" d="M104.09,438.48c-0.2-0.16-0.23-0.45-0.08-0.65c0.16-0.2,0.45-0.23,0.65-0.08l1.89,1.49
		c0.2,0.16,0.23,0.45,0.08,0.65c-0.16,0.2-0.45,0.23-0.65,0.08L104.09,438.48z"/>
	<path class="st6" d="M106.5,441.47c-0.2,0.16-0.49,0.12-0.64-0.08c-0.16-0.2-0.12-0.49,0.08-0.65l1.89-1.49
		c0.2-0.16,0.49-0.12,0.64,0.08c0.16,0.2,0.12,0.49-0.08,0.65L106.5,441.47z"/>
	<path class="st6" d="M105.93,438.48c-0.2-0.16-0.23-0.45-0.08-0.65c0.16-0.2,0.45-0.23,0.64-0.08l1.89,1.49
		c0.2,0.16,0.23,0.45,0.08,0.65c-0.16,0.2-0.45,0.23-0.64,0.08L105.93,438.48z"/>
</g>
<g class="st17">
	<path class="st6" d="M106.29,42.76c0.45,0,0.86,0.18,1.15,0.48c0.29,0.29,0.48,0.7,0.48,1.15c0,0.45-0.18,0.86-0.48,1.15
		c-0.29,0.29-0.7,0.48-1.15,0.48c-0.45,0-0.86-0.18-1.15-0.48c-0.29-0.29-0.48-0.7-0.48-1.15c0-0.45,0.18-0.86,0.48-1.15
		C105.43,42.94,105.84,42.76,106.29,42.76L106.29,42.76z M106.96,43.72c-0.17-0.17-0.41-0.28-0.67-0.28c-0.26,0-0.5,0.11-0.67,0.28
		c-0.17,0.17-0.28,0.41-0.28,0.67c0,0.26,0.11,0.5,0.28,0.67c0.17,0.17,0.41,0.28,0.67,0.28c0.26,0,0.5-0.11,0.67-0.28
		c0.17-0.17,0.28-0.41,0.28-0.67C107.23,44.13,107.13,43.89,106.96,43.72z"/>
	<path class="st6" d="M105.95,33.61c0-0.19,0.15-0.34,0.34-0.34c0.19,0,0.34,0.15,0.34,0.34v9.49c0,0.19-0.15,0.34-0.34,0.34
		c-0.19,0-0.34-0.15-0.34-0.34V33.61z"/>
	<path class="st6" d="M104.78,35.07c-0.12-0.15-0.09-0.36,0.06-0.48c0.15-0.12,0.36-0.09,0.48,0.06l1.24,1.57
		c0.12,0.15,0.09,0.36-0.06,0.48c-0.15,0.12-0.36,0.09-0.48-0.06L104.78,35.07z"/>
	<path class="st6" d="M107.26,34.65c0.12-0.15,0.33-0.17,0.48-0.06c0.15,0.12,0.17,0.33,0.06,0.48l-1.24,1.57
		c-0.12,0.15-0.33,0.17-0.48,0.06c-0.15-0.12-0.17-0.33-0.06-0.48L107.26,34.65z"/>
	<path class="st6" d="M104.78,36.6c-0.12-0.15-0.09-0.36,0.06-0.48c0.15-0.12,0.36-0.09,0.48,0.06l1.24,1.57
		c0.12,0.15,0.09,0.36-0.06,0.48c-0.15,0.12-0.36,0.09-0.48-0.06L104.78,36.6z"/>
	<path class="st6" d="M107.26,36.18c0.12-0.15,0.33-0.17,0.48-0.06c0.15,0.12,0.17,0.33,0.06,0.48l-1.24,1.57
		c-0.12,0.15-0.33,0.17-0.48,0.06c-0.15-0.12-0.17-0.33-0.06-0.48L107.26,36.18z"/>
	<path class="st6" d="M115.45,38.71c0.16-0.09,0.37-0.04,0.47,0.12c0.09,0.16,0.04,0.37-0.12,0.46l-8.22,4.74
		c-0.16,0.09-0.37,0.04-0.46-0.12c-0.09-0.16-0.04-0.37,0.12-0.46L115.45,38.71z"/>
	<path class="st6" d="M113.61,38.42c0.07-0.17,0.27-0.26,0.44-0.19c0.17,0.07,0.26,0.27,0.19,0.44l-0.74,1.86
		c-0.07,0.17-0.27,0.26-0.44,0.19c-0.17-0.07-0.26-0.27-0.19-0.44L113.61,38.42z"/>
	<path class="st6" d="M115.21,40.36c0.19,0.03,0.32,0.2,0.29,0.39c-0.03,0.19-0.2,0.32-0.38,0.29l-1.98-0.29
		c-0.19-0.03-0.32-0.2-0.29-0.38c0.03-0.19,0.2-0.32,0.38-0.29L115.21,40.36z"/>
	<path class="st6" d="M112.28,39.19c0.07-0.17,0.27-0.26,0.44-0.19c0.17,0.07,0.26,0.27,0.19,0.44l-0.74,1.86
		c-0.07,0.17-0.27,0.26-0.44,0.19c-0.17-0.07-0.26-0.27-0.19-0.44L112.28,39.19z"/>
	<path class="st6" d="M113.89,41.13c0.19,0.03,0.32,0.2,0.29,0.39c-0.03,0.19-0.2,0.32-0.39,0.29l-1.98-0.29
		c-0.19-0.03-0.32-0.2-0.29-0.39c0.03-0.19,0.2-0.32,0.38-0.29L113.89,41.13z"/>
	<path class="st6" d="M115.79,49.48c0.16,0.09,0.22,0.3,0.12,0.47c-0.09,0.16-0.3,0.22-0.47,0.12l-8.22-4.74
		c-0.16-0.09-0.22-0.3-0.12-0.46c0.09-0.16,0.3-0.22,0.46-0.12L115.79,49.48z"/>
	<path class="st6" d="M115.12,47.74c0.19-0.03,0.36,0.1,0.38,0.29c0.03,0.19-0.1,0.36-0.29,0.39l-1.98,0.29
		c-0.19,0.03-0.36-0.1-0.38-0.29c-0.03-0.19,0.1-0.36,0.29-0.39L115.12,47.74z"/>
	<path class="st6" d="M114.24,50.11c0.07,0.17-0.02,0.37-0.19,0.44c-0.17,0.07-0.37-0.02-0.44-0.19l-0.74-1.86
		c-0.07-0.17,0.02-0.37,0.19-0.44c0.17-0.07,0.37,0.02,0.44,0.19L114.24,50.11z"/>
	<path class="st6" d="M113.79,46.98c0.19-0.03,0.36,0.1,0.39,0.29c0.03,0.19-0.1,0.36-0.29,0.39l-1.98,0.29
		c-0.19,0.03-0.36-0.1-0.38-0.29c-0.03-0.19,0.1-0.36,0.29-0.39L113.79,46.98z"/>
	<path class="st6" d="M112.91,49.34c0.07,0.17-0.02,0.37-0.19,0.44c-0.17,0.07-0.37-0.02-0.44-0.19l-0.74-1.86
		c-0.07-0.17,0.02-0.37,0.19-0.44c0.17-0.07,0.37,0.02,0.44,0.19L112.91,49.34z"/>
	<path class="st6" d="M106.63,55.16c0,0.19-0.15,0.34-0.34,0.34c-0.19,0-0.34-0.15-0.34-0.34v-9.49c0-0.19,0.15-0.34,0.34-0.34
		c0.19,0,0.34,0.15,0.34,0.34V55.16z"/>
	<path class="st6" d="M107.8,53.71c0.12,0.15,0.09,0.36-0.06,0.48c-0.15,0.12-0.36,0.09-0.48-0.06l-1.24-1.57
		c-0.12-0.15-0.09-0.36,0.06-0.48c0.15-0.12,0.36-0.09,0.48,0.06L107.8,53.71z"/>
	<path class="st6" d="M105.31,54.13c-0.12,0.15-0.33,0.17-0.48,0.06c-0.15-0.12-0.17-0.33-0.06-0.48l1.24-1.57
		c0.12-0.15,0.33-0.17,0.48-0.06c0.15,0.12,0.17,0.33,0.06,0.48L105.31,54.13z"/>
	<path class="st6" d="M107.8,52.18c0.12,0.15,0.09,0.36-0.06,0.48c-0.15,0.12-0.36,0.09-0.48-0.06l-1.24-1.57
		c-0.12-0.15-0.09-0.36,0.06-0.48c0.15-0.12,0.36-0.09,0.48,0.06L107.8,52.18z"/>
	<path class="st6" d="M105.31,52.6c-0.12,0.15-0.33,0.17-0.48,0.06c-0.15-0.12-0.17-0.33-0.06-0.48l1.24-1.57
		c0.12-0.15,0.33-0.17,0.48-0.06c0.15,0.12,0.17,0.33,0.06,0.48L105.31,52.6z"/>
	<path class="st6" d="M97.13,50.07c-0.16,0.09-0.37,0.04-0.46-0.12c-0.09-0.16-0.04-0.37,0.12-0.47l8.22-4.74
		c0.16-0.09,0.37-0.04,0.46,0.12c0.09,0.16,0.04,0.37-0.12,0.46L97.13,50.07z"/>
	<path class="st6" d="M98.97,50.36c-0.07,0.17-0.27,0.26-0.44,0.19c-0.17-0.07-0.26-0.27-0.19-0.44l0.74-1.86
		c0.07-0.17,0.27-0.26,0.44-0.19c0.17,0.07,0.26,0.27,0.19,0.44L98.97,50.36z"/>
	<path class="st6" d="M97.36,48.42c-0.19-0.03-0.32-0.2-0.29-0.39c0.03-0.19,0.2-0.32,0.38-0.29l1.98,0.29
		c0.19,0.03,0.32,0.2,0.29,0.39c-0.03,0.19-0.2,0.32-0.38,0.29L97.36,48.42z"/>
	<path class="st6" d="M100.3,49.59c-0.07,0.17-0.27,0.26-0.44,0.19c-0.17-0.07-0.26-0.27-0.19-0.44l0.74-1.86
		c0.07-0.17,0.27-0.26,0.44-0.19c0.17,0.07,0.26,0.27,0.19,0.44L100.3,49.59z"/>
	<path class="st6" d="M98.69,47.65c-0.19-0.03-0.32-0.2-0.29-0.39c0.03-0.19,0.2-0.32,0.38-0.29l1.98,0.29
		c0.19,0.03,0.32,0.2,0.29,0.39c-0.03,0.19-0.2,0.32-0.38,0.29L98.69,47.65z"/>
	<path class="st6" d="M96.79,39.3c-0.16-0.09-0.22-0.3-0.12-0.46c0.09-0.16,0.3-0.22,0.46-0.12l8.22,4.74
		c0.16,0.09,0.22,0.3,0.12,0.46c-0.09,0.16-0.3,0.22-0.46,0.12L96.79,39.3z"/>
	<path class="st6" d="M97.46,41.04c-0.19,0.03-0.36-0.1-0.38-0.29c-0.03-0.19,0.1-0.36,0.29-0.39l1.98-0.29
		c0.19-0.03,0.36,0.1,0.38,0.29c0.03,0.19-0.1,0.36-0.29,0.38L97.46,41.04z"/>
	<path class="st6" d="M98.34,38.67c-0.07-0.17,0.02-0.37,0.19-0.44c0.17-0.07,0.37,0.02,0.44,0.19l0.74,1.86
		c0.07,0.17-0.02,0.37-0.19,0.44c-0.17,0.07-0.37-0.02-0.44-0.19L98.34,38.67z"/>
	<path class="st6" d="M98.79,41.8c-0.19,0.03-0.36-0.1-0.38-0.29c-0.03-0.19,0.1-0.36,0.29-0.39l1.98-0.29
		c0.19-0.03,0.36,0.1,0.38,0.29c0.03,0.19-0.1,0.36-0.29,0.39L98.79,41.8z"/>
	<path class="st6" d="M99.67,39.44c-0.07-0.17,0.02-0.37,0.19-0.44c0.17-0.07,0.37,0.02,0.44,0.19l0.74,1.86
		c0.07,0.17-0.02,0.37-0.19,0.44c-0.17,0.07-0.37-0.02-0.44-0.19L99.67,39.44z"/>
	<path class="st6" d="M102.68,38.81c-0.09-0.16-0.04-0.37,0.13-0.46c0.16-0.09,0.37-0.04,0.46,0.13l2.67,4.63
		c0.09,0.16,0.04,0.37-0.13,0.46c-0.16,0.09-0.37,0.04-0.46-0.12L102.68,38.81z"/>
	<path class="st6" d="M102.05,39.79c-0.17-0.07-0.26-0.27-0.19-0.44c0.07-0.17,0.27-0.26,0.44-0.19l1.65,0.66
		c0.17,0.07,0.26,0.27,0.19,0.44c-0.07,0.17-0.27,0.26-0.44,0.19L102.05,39.79z"/>
	<path class="st6" d="M103.75,38.32c0.03-0.19,0.2-0.32,0.39-0.29c0.19,0.03,0.32,0.2,0.29,0.39l-0.26,1.76
		c-0.03,0.19-0.2,0.32-0.39,0.29c-0.19-0.03-0.32-0.2-0.29-0.38L103.75,38.32z"/>
	<path class="st6" d="M102.73,40.97c-0.17-0.07-0.26-0.27-0.19-0.44c0.07-0.17,0.27-0.26,0.44-0.19l1.65,0.66
		c0.17,0.07,0.26,0.27,0.19,0.44c-0.07,0.17-0.27,0.26-0.44,0.19L102.73,40.97z"/>
	<path class="st6" d="M104.43,39.5c0.03-0.19,0.2-0.32,0.38-0.29c0.19,0.03,0.32,0.2,0.29,0.39l-0.26,1.76
		c-0.03,0.19-0.2,0.32-0.39,0.29c-0.19-0.03-0.32-0.2-0.29-0.39L104.43,39.5z"/>
	<path class="st6" d="M109.31,38.48c0.09-0.16,0.3-0.22,0.46-0.13c0.16,0.09,0.22,0.3,0.13,0.46l-2.67,4.63
		c-0.09,0.16-0.3,0.22-0.46,0.12c-0.16-0.09-0.22-0.3-0.13-0.46L109.31,38.48z"/>
	<path class="st6" d="M108.15,38.42c-0.03-0.19,0.1-0.36,0.29-0.39c0.19-0.03,0.36,0.1,0.39,0.29l0.26,1.76
		c0.03,0.19-0.1,0.36-0.29,0.38c-0.19,0.03-0.36-0.1-0.38-0.29L108.15,38.42z"/>
	<path class="st6" d="M110.27,39.16c0.17-0.07,0.37,0.02,0.44,0.19c0.07,0.17-0.02,0.37-0.19,0.44l-1.65,0.66
		c-0.17,0.07-0.37-0.02-0.44-0.19c-0.07-0.17,0.02-0.37,0.19-0.44L110.27,39.16z"/>
	<path class="st6" d="M107.47,39.6c-0.03-0.19,0.1-0.36,0.29-0.39c0.19-0.03,0.36,0.1,0.39,0.29l0.26,1.76
		c0.03,0.19-0.1,0.36-0.29,0.38c-0.19,0.03-0.36-0.1-0.39-0.29L107.47,39.6z"/>
	<path class="st6" d="M109.59,40.34c0.17-0.07,0.37,0.02,0.44,0.19c0.07,0.17-0.02,0.37-0.19,0.44l-1.65,0.66
		c-0.17,0.07-0.37-0.02-0.44-0.19c-0.07-0.17,0.02-0.37,0.19-0.44L109.59,40.34z"/>
	<path class="st6" d="M112.92,44.05c0.19,0,0.34,0.15,0.34,0.34c0,0.19-0.15,0.34-0.34,0.34h-5.35c-0.19,0-0.34-0.15-0.34-0.34
		c0-0.19,0.15-0.34,0.34-0.34H112.92z"/>
	<path class="st6" d="M112.39,43.02c0.15-0.12,0.36-0.09,0.48,0.06c0.12,0.15,0.09,0.36-0.06,0.48l-1.4,1.1
		c-0.15,0.12-0.36,0.09-0.48-0.06c-0.12-0.15-0.09-0.36,0.06-0.48L112.39,43.02z"/>
	<path class="st6" d="M112.81,45.23c0.15,0.12,0.17,0.33,0.06,0.48c-0.12,0.15-0.33,0.17-0.48,0.06l-1.4-1.1
		c-0.15-0.12-0.17-0.33-0.06-0.48c0.12-0.15,0.33-0.17,0.48-0.06L112.81,45.23z"/>
	<path class="st6" d="M111.03,43.02c0.15-0.12,0.36-0.09,0.48,0.06c0.12,0.15,0.09,0.36-0.06,0.48l-1.4,1.1
		c-0.15,0.12-0.36,0.09-0.48-0.06c-0.12-0.15-0.09-0.36,0.06-0.48L111.03,43.02z"/>
	<path class="st6" d="M111.45,45.23c0.15,0.12,0.17,0.33,0.06,0.48c-0.12,0.15-0.33,0.17-0.48,0.06l-1.4-1.1
		c-0.15-0.12-0.17-0.33-0.06-0.48c0.12-0.15,0.33-0.17,0.48-0.06L111.45,45.23z"/>
	<path class="st6" d="M109.9,49.97c0.09,0.16,0.04,0.37-0.13,0.46c-0.16,0.09-0.37,0.04-0.46-0.13l-2.67-4.63
		c-0.09-0.16-0.04-0.37,0.13-0.46c0.16-0.09,0.37-0.04,0.46,0.13L109.9,49.97z"/>
	<path class="st6" d="M110.52,48.99c0.17,0.07,0.26,0.27,0.19,0.44c-0.07,0.17-0.27,0.26-0.44,0.19l-1.65-0.66
		c-0.17-0.07-0.26-0.27-0.19-0.44c0.07-0.17,0.27-0.26,0.44-0.19L110.52,48.99z"/>
	<path class="st6" d="M108.83,50.45c-0.03,0.19-0.2,0.32-0.39,0.29c-0.19-0.03-0.32-0.2-0.29-0.38l0.26-1.76
		c0.03-0.19,0.2-0.32,0.38-0.29c0.19,0.03,0.32,0.2,0.29,0.38L108.83,50.45z"/>
	<path class="st6" d="M109.84,47.81c0.17,0.07,0.26,0.27,0.19,0.44c-0.07,0.17-0.27,0.26-0.44,0.19l-1.65-0.66
		c-0.17-0.07-0.26-0.27-0.19-0.44c0.07-0.17,0.27-0.26,0.44-0.19L109.84,47.81z"/>
	<path class="st6" d="M108.15,49.28c-0.03,0.19-0.2,0.32-0.39,0.29c-0.19-0.03-0.32-0.2-0.29-0.39l0.26-1.76
		c0.03-0.19,0.2-0.32,0.39-0.29c0.19,0.03,0.32,0.2,0.29,0.39L108.15,49.28z"/>
	<path class="st6" d="M103.27,50.3c-0.09,0.16-0.3,0.22-0.46,0.13c-0.16-0.09-0.22-0.3-0.13-0.46l2.67-4.63
		c0.09-0.16,0.3-0.22,0.46-0.13c0.16,0.09,0.22,0.3,0.13,0.46L103.27,50.3z"/>
	<path class="st6" d="M104.42,50.36c0.03,0.19-0.1,0.36-0.29,0.38c-0.19,0.03-0.36-0.1-0.39-0.29l-0.26-1.76
		c-0.03-0.19,0.1-0.36,0.29-0.38c0.19-0.03,0.36,0.1,0.39,0.29L104.42,50.36z"/>
	<path class="st6" d="M102.3,49.62c-0.17,0.07-0.37-0.02-0.44-0.19c-0.07-0.17,0.02-0.37,0.19-0.44l1.65-0.66
		c0.17-0.07,0.37,0.02,0.44,0.19c0.07,0.17-0.02,0.37-0.19,0.44L102.3,49.62z"/>
	<path class="st6" d="M105.1,49.18c0.03,0.19-0.1,0.36-0.29,0.39c-0.19,0.03-0.36-0.1-0.38-0.29l-0.26-1.76
		c-0.03-0.19,0.1-0.36,0.29-0.39c0.19-0.03,0.36,0.1,0.39,0.29L105.1,49.18z"/>
	<path class="st6" d="M102.98,48.44c-0.17,0.07-0.37-0.02-0.44-0.19c-0.07-0.17,0.02-0.37,0.19-0.44l1.65-0.66
		c0.17-0.07,0.37,0.02,0.44,0.19c0.07,0.17-0.02,0.37-0.19,0.44L102.98,48.44z"/>
	<path class="st6" d="M99.65,44.73c-0.19,0-0.34-0.15-0.34-0.34c0-0.19,0.15-0.34,0.34-0.34H105c0.19,0,0.34,0.15,0.34,0.34
		c0,0.19-0.15,0.34-0.34,0.34H99.65z"/>
	<path class="st6" d="M100.19,45.76c-0.15,0.12-0.36,0.09-0.48-0.06c-0.12-0.15-0.09-0.36,0.06-0.48l1.4-1.1
		c0.15-0.12,0.36-0.09,0.48,0.06c0.12,0.15,0.09,0.36-0.06,0.48L100.19,45.76z"/>
	<path class="st6" d="M99.77,43.55c-0.15-0.12-0.17-0.33-0.06-0.48c0.12-0.15,0.33-0.17,0.48-0.06l1.4,1.1
		c0.15,0.12,0.17,0.33,0.06,0.48c-0.12,0.15-0.33,0.17-0.48,0.06L99.77,43.55z"/>
	<path class="st6" d="M101.55,45.76c-0.15,0.12-0.36,0.09-0.48-0.06c-0.12-0.15-0.09-0.36,0.06-0.48l1.4-1.1
		c0.15-0.12,0.36-0.09,0.48,0.06c0.12,0.15,0.09,0.36-0.06,0.48L101.55,45.76z"/>
	<path class="st6" d="M101.13,43.55c-0.15-0.12-0.17-0.33-0.06-0.48c0.12-0.15,0.33-0.17,0.48-0.06l1.4,1.1
		c0.15,0.12,0.17,0.33,0.06,0.48c-0.12,0.15-0.33,0.17-0.48,0.06L101.13,43.55z"/>
</g>
</svg>
