<?xml version="1.0" encoding="utf-8"?>
<!-- Generator: Adobe Illustrator 27.1.1, SVG Export Plug-In . SVG Version: 6.00 Build 0)  -->
<svg version="1.1" xmlns="http://www.w3.org/2000/svg" xmlns:xlink="http://www.w3.org/1999/xlink" x="0px" y="0px"
	 viewBox="0 0 300 300" style="enable-background:new 0 0 300 300;" xml:space="preserve">
<style type="text/css">
	.st0{fill:#FFE6BF;}
	.st1{fill:#FFC263;fill-opacity:0.3;stroke:#FFC263;stroke-width:5;stroke-miterlimit:10;}
	.st2{fill:url(#SVGID_1_);}
	.st3{fill:none;stroke:#FFE9C7;stroke-width:2;stroke-miterlimit:10;}
	.st4{fill:#368F5D;}
	.st5{fill:#4BBF71;}
	.st6{fill:#1F852D;}
	.st7{fill:#39B54A;}
	.st8{fill:#C1272D;}
	.st9{fill:#FFC263;}
	.st10{fill:url(#SVGID_00000156576799307877581280000014478179126678155453_);}
	.st11{fill:url(#SVGID_00000140699817195609161410000000326460989493708991_);}
	.st12{fill:url(#SVGID_00000155842416366388377670000009550522659698131359_);}
	.st13{fill:#FF304E;}
</style>
<g id="background">
</g>
<g id="objects">
	<g>
		<path class="st1" d="M206,92.27c0.05-0.08,0.1-0.17,0.14-0.25l-0.08,0.28C206.04,92.28,206.02,92.28,206,92.27z M209.51,90.32
			c1.23-0.3,3.19-0.63,5.28-0.32C212.64,90.76,210.84,90.66,209.51,90.32z M206.46,90.95c0.01-0.1,0.03-0.19,0.04-0.29
			c0.02,0,0.03,0,0.05,0L206.46,90.95z M216.11,106.24c2.56-0.37,4.39,1.25,3.8,5.06C218.42,109.9,217.21,108.13,216.11,106.24z"/>
		<g>
			<radialGradient id="SVGID_1_" cx="151.473" cy="156.002" r="76.9356" gradientUnits="userSpaceOnUse">
				<stop  offset="0.1416" style="stop-color:#FFFFFF"/>
				<stop  offset="1" style="stop-color:#FFEFA0"/>
			</radialGradient>
			<path class="st2" d="M130.06,231.15c-3.29,0.18-8.1-1.36-10.69-3.42l-38.08-30.3c-2.58-2.05-4.87-6.43-5.08-9.72l-3.39-52.83
				c-0.21-3.29,1.74-7.66,4.33-9.7l52.6-41.44c2.59-2.04,7.38-3.3,10.64-2.79l50,7.77c3.26,0.51,7.61,3.03,9.67,5.61l26.56,33.25
				c2.06,2.58,3.64,7.39,3.52,10.69l-1.55,42.15c-0.12,3.3-1.91,8.11-3.96,10.69l-25.43,31.86c-2.06,2.58-6.44,4.83-9.73,5.01
				L130.06,231.15z"/>
			<path class="st3" d="M88.53,193.89c-2.68-2.13-5.06-6.68-5.28-10.11l-2.91-45.31c-0.22-3.42,1.81-7.96,4.5-10.08l46.73-36.81
				c2.69-2.12,7.67-3.43,11.06-2.9l43.6,6.78c3.39,0.53,7.92,3.15,10.06,5.83l22.81,28.55c2.14,2.68,3.79,7.68,3.66,11.11
				l-1.35,36.58c-0.13,3.43-1.98,8.43-4.12,11.11l-21.6,27.06c-2.14,2.68-6.69,5.02-10.12,5.21l-52.91,2.82
				c-3.43,0.18-8.43-1.41-11.11-3.55L88.53,193.89z"/>
			<g>
				<g>
					<g>
						<path class="st4" d="M202.54,80.62c4.62,1.8,10.85-3.23,11.87-10.1c3.57,3.88,8.48,0.32,10.16-3.33
							c-1.35,5.63,8.73,6.29,14.43,3.94c-6.19,4.46-10.52,10.59-8.62,14.24c-6.46-1.98-11.21,3.61-11.26,7.77
							c-4.46-6.94-13.18-3.52-13.18-3.52L202.54,80.62z"/>
						<path class="st5" d="M203.06,93.65c3.5,2.13,7.47,10.82,5.43,14.66c4.68-4.89,10.62-4.36,9.05,2.67
							c4.38-3.17,9.16-2.23,10.52,1.65c1.98-1.07,7.03,1.01,7.03,1.01c-5.56-6.89-2.35-12.25-2.35-12.25
							c-5.59-0.28-7.58-5.18-4.87-9.75c-7.33,3.33-11.84-1.31-10.61-5.6c-7.32,6.31-12.5,2.03-12.5,2.03L203.06,93.65z"/>
						<path class="st5" d="M205.56,85.26c-2.23-2.17-8.47-0.06-10.64,1.49c1.01-6.11-0.15-11.71-5.57-10.14
							c2.35-5.38,4.23-9.19-2.62-13.2c5.58-1.54,7.37-5.78,7.11-11.37c4.71,6.33,10.47,5.22,10.47,5.22
							c-3.41,8.34,3.1,11.01,3.1,11.01c-1.5,6.71,1.56,8.22,1.56,8.22C206.06,80.55,205.56,85.26,205.56,85.26z"/>
						<g>
							<path class="st6" d="M200.67,80.01c-0.09-0.01-0.18-0.3-0.26-0.8c-0.04-0.25-0.08-0.56-0.12-0.91
								c-0.05-0.35-0.16-0.76-0.24-1.21c-0.3-1.78-0.93-4.23-1.58-6.95c-1.38-5.42-2.51-9.83-2.15-9.95
								c0.33-0.11,2.03,4.15,3.43,9.62c0.66,2.75,1.15,5.27,1.23,7.16c0.02,0.47,0.06,0.89,0.05,1.26c-0.03,0.38-0.07,0.71-0.1,0.97
								C200.85,79.74,200.76,80.02,200.67,80.01z"/>
						</g>
						<g>
							<path class="st7" d="M207.08,84.62c-0.1-0.14,0.79-0.94,2.38-2.01c1.6-1.06,3.94-2.33,6.65-3.44
								c2.73-1.07,5.29-1.78,7.18-2.12c1.89-0.33,3.08-0.36,3.11-0.2c0.03,0.19-1.09,0.55-2.89,1.1c-1.8,0.56-4.25,1.39-6.91,2.44
								c-2.65,1.08-4.99,2.19-6.68,3.02C208.25,84.26,207.19,84.78,207.08,84.62z"/>
						</g>
						<path class="st8" d="M200.34,81.27c4.19,2.52-0.05,8.06-3.67,6.28C193.06,85.77,195.47,78.35,200.34,81.27z"/>
						<path class="st8" d="M202.55,86.74c4.12,2.47-0.05,7.92-3.6,6.17C195.39,91.16,197.76,83.87,202.55,86.74z"/>
						<path class="st8" d="M206.45,83.08c4.12,2.47-0.05,7.91-3.61,6.16C199.29,87.5,201.66,80.21,206.45,83.08z"/>
						<g>
							<path class="st6" d="M229.43,108.81c-0.12,0.14-1.36-0.66-3.28-2.04c-1.97-1.31-4.63-3.18-7.71-5.07
								c-3.08-1.88-5.87-3.59-7.89-4.82c-2.02-1.25-3.23-2.1-3.14-2.26c0.09-0.16,1.46,0.4,3.59,1.45c2.14,1.04,5.05,2.59,8.14,4.52
								c3.11,1.9,5.74,3.92,7.58,5.44C228.51,107.62,229.54,108.67,229.43,108.81z"/>
						</g>
					</g>
				</g>
				<g>
					<path class="st9" d="M218.71,111.12c-8.46-6.4-8.5-24.14-21.8-19.86v0c-0.01,0-0.03,0.01-0.04,0.02c-0.02,0-0.03,0-0.04,0.01h0
						c-13.25,4.43-2.77,18.75-5.8,28.91c-3.53,4.86,1.56,8.3,16.31,2.97C222.38,118.72,224.43,112.94,218.71,111.12z"/>
					<path class="st8" d="M219.03,114.7c0.52,1.59-4.91,4.8-12.12,7.17c-7.22,2.37-13.5,3-14.02,1.41
						c-0.52-1.59,4.91-4.8,12.12-7.16C212.24,113.75,218.51,113.12,219.03,114.7z"/>
					<path class="st5" d="M210.14,121.12c0.26,1.74-0.94,3.37-2.68,3.62c-1.75,0.26-3.37-0.94-3.63-2.69
						c-0.26-1.74,0.94-3.36,2.69-3.62C208.26,118.18,209.88,119.38,210.14,121.12z"/>
				</g>
				<g>
					<path class="st9" d="M183.16,116.99c2.56-14.71,24.76-26.19,10.84-40.08l0,0c-0.01-0.02-0.03-0.03-0.05-0.05
						c-0.02-0.01-0.02-0.03-0.04-0.04l0,0c-14.07-13.75-25.27,8.59-39.94,11.35c-8.37-1.29-9.4,7.29,6.77,22.33
						C175.99,126.49,184.56,125.33,183.16,116.99z"/>
					<path class="st8" d="M178.88,119.71c-1.66,1.67-9.17-3.06-16.78-10.57c-7.61-7.52-12.44-14.97-10.79-16.64
						c1.66-1.68,9.17,3.06,16.78,10.58C175.7,110.58,180.53,118.03,178.88,119.71z"/>
					<path class="st5" d="M165.11,112.71c-2.02,1.44-4.83,0.98-6.27-1.04c-1.45-2.02-0.99-4.83,1.03-6.28
						c2.01-1.44,4.82-0.98,6.27,1.04C167.59,108.45,167.13,111.25,165.11,112.71z"/>
				</g>
			</g>
			<g>
				<path class="st7" d="M202.2,197.33c0,0.09-1.41,0.18-3.95,0.26c-2.54,0.08-6.23,0.15-10.78,0.21
					c-9.1,0.12-21.67,0.19-35.56,0.19c-13.89,0-26.46-0.07-35.56-0.19c-4.55-0.06-8.23-0.13-10.78-0.21
					c-2.54-0.08-3.95-0.17-3.95-0.26c0-0.09,1.41-0.18,3.95-0.26c2.54-0.08,6.23-0.15,10.78-0.21c9.1-0.12,21.67-0.19,35.56-0.19
					c13.89,0,26.46,0.07,35.56,0.19c4.55,0.06,8.23,0.13,10.78,0.21C200.8,197.16,202.2,197.24,202.2,197.33z"/>
			</g>
			<g>
				<path class="st7" d="M149.19,197.33c0.17,0.03-0.09,2.39-1.14,6.09c-0.54,1.84-1.26,4.02-2.46,6.31
					c-0.63,1.13-1.34,2.32-2.46,3.33c-0.56,0.5-1.23,0.96-2.05,1.18l-0.63,0.12l-0.65,0l-0.63-0.09c-0.21-0.07-0.43-0.12-0.64-0.22
					c-0.43-0.19-0.83-0.54-1.09-0.97c-0.22-0.44-0.34-0.91-0.33-1.33c-0.01-0.86,0.21-1.59,0.47-2.28c0.53-1.36,1.25-2.52,1.99-3.57
					c1.49-2.1,3.08-3.76,4.5-5.06C146.91,198.22,149.11,197.19,149.19,197.33c0.11,0.17-1.87,1.46-4.48,4.16
					c-1.3,1.35-2.78,3.04-4.15,5.08c-0.68,1.02-1.33,2.14-1.78,3.34c-0.45,1.17-0.63,2.61,0.31,2.94c0.11,0.06,0.26,0.08,0.38,0.13
					l0.44,0.06h0.42l0.42-0.07c0.55-0.14,1.07-0.48,1.53-0.88c0.93-0.81,1.64-1.9,2.25-2.95c1.2-2.13,2-4.24,2.64-6.01
					C148.41,199.57,149,197.29,149.19,197.33z"/>
			</g>
			<g>
				<path class="st7" d="M149.19,197.33c0.1-0.14,2.21,1.02,5.33,3.38c1.55,1.19,3.36,2.66,5.13,4.6c0.87,0.98,1.77,2.07,2.36,3.5
					c0.28,0.71,0.49,1.6,0.19,2.51c-0.14,0.44-0.43,0.87-0.73,1.16c-0.29,0.31-0.65,0.58-1.04,0.79c-0.79,0.43-1.72,0.51-2.53,0.38
					c-0.82-0.13-1.56-0.45-2.21-0.83c-1.3-0.78-2.3-1.82-3.11-2.87c-1.62-2.13-2.49-4.39-2.98-6.3c-0.5-1.92-0.6-3.53-0.61-4.62
					C148.99,197.93,149.11,197.33,149.19,197.33c0.24-0.01,0.17,2.43,1.31,6.06c0.58,1.79,1.5,3.89,3.04,5.82
					c0.77,0.95,1.69,1.87,2.8,2.51c1.09,0.63,2.43,0.96,3.47,0.39c0.51-0.28,0.99-0.75,1.13-1.19c0.17-0.46,0.08-1.06-0.15-1.64
					c-0.46-1.16-1.26-2.22-2.07-3.16c-1.64-1.89-3.36-3.42-4.81-4.68C151,198.93,149.08,197.49,149.19,197.33z"/>
			</g>
		</g>
	</g>
	<g>
		<path class="st13" d="M150.93,184.12c-0.4-0.39-0.59-0.86-0.59-1.4v-7.54h-23.28c-0.54,0-1.01-0.2-1.4-0.59
			c-0.4-0.39-0.59-0.86-0.59-1.4v-7.83c0-1.28,0.32-2.34,0.96-3.18l22.1-27.86c0.44-0.54,0.85-0.9,1.22-1.07
			c0.37-0.17,0.87-0.26,1.52-0.26h11.16c0.54,0,1.01,0.2,1.4,0.59c0.39,0.4,0.59,0.86,0.59,1.4v28.38h6.36c0.54,0,1.01,0.2,1.4,0.59
			c0.39,0.4,0.59,0.86,0.59,1.4v7.83c0,0.54-0.2,1.01-0.59,1.4c-0.4,0.4-0.86,0.59-1.4,0.59h-6.36v7.54c0,0.54-0.2,1.01-0.59,1.4
			c-0.4,0.4-0.86,0.59-1.4,0.59h-9.68C151.79,184.71,151.32,184.51,150.93,184.12z M150.71,149.75l-10.79,13.6h10.79V149.75z"/>
	</g>
</g>
<g id="designed_by_freepik">
</g>
</svg>
